<?xml version="1.0" standalone="no"?>
<!DOCTYPE svg PUBLIC "-//W3C//DTD SVG 1.1//EN" "http://www.w3.org/Graphics/SVG/1.1/DTD/svg11.dtd" >
<svg>
<metadata>
Created by FontForge 20110222 at Tue Apr  9 16:07:26 2013
 By Orthosie Webmaster
Copyright (c) 1990 Adobe Systems Incorporated.  All Rights Reserved.Helvetica is a trademark of Linotype AG and/or its subsidiaries.
</metadata>
<defs>
<font id="Helvetica33ExtendedThinThin" horiz-adv-x="648" >
  <font-face 
    font-family="Helvetica33ExtendedThinThin"
    font-weight="100"
    font-stretch="expanded"
    units-per-em="1000"
    panose-1="2 11 2 0 0 0 0 0 0 0"
    ascent="800"
    descent="-200"
    x-height="512"
    cap-height="714"
    bbox="-108 -220 1162 950"
    underline-thickness="50"
    underline-position="-50"
    unicode-range="U+0020-2122"
  />
<missing-glyph horiz-adv-x="502" 
d="M-1 0h500v500h-500v-500zM9 10v480h480v-480h-480z" />
    <glyph glyph-name=".notdef" horiz-adv-x="502" 
d="M-1 0h500v500h-500v-500zM9 10v480h480v-480h-480z" />
    <glyph glyph-name=".null" horiz-adv-x="0" 
 />
    <glyph glyph-name="nonmarkingreturn" horiz-adv-x="333" 
 />
    <glyph glyph-name="space" unicode=" " horiz-adv-x="222" 
 />
    <glyph glyph-name="exclam" unicode="!" horiz-adv-x="258" 
d="M103 523q0 -66 5 -199q3 -94 4 -140h34q1 46 4 140q5 133 5 199v191h-52v-191zM103 0h52v100h-52v-100z" />
    <glyph glyph-name="quotedbl" unicode="&#x22;" horiz-adv-x="352" 
d="M86 484h40v230h-40v-230zM226 484h40v230h-40v-230z" />
    <glyph glyph-name="numbersign" unicode="#" 
d="M157 0h34l31 228h169l-31 -228h34l31 228h118v34h-113l25 180h118v34h-113l31 228h-34l-31 -228h-169l31 228h-34l-31 -228h-118v-34h113l-25 -180h-118v-34h113zM396 262h-169l25 180h169z" />
    <glyph glyph-name="dollar" unicode="$" 
d="M344 335l57 -13q50 -11 81.5 -23.5t50.5 -29.5q35 -29 35 -89q0 -32 -12.5 -60t-39 -49.5t-69.5 -34t-103 -12.5v311zM310 388q-109 21 -159 52t-50 96t49 103.5t160 40.5v-292zM310 24q-121 6 -178 59t-58 150h-46q0 -111 67.5 -176.5t214.5 -72.5v-94h34v94
q77 0 131 17t85.5 45.5t45.5 63.5t14 73q0 81 -52 123t-162 63l-62 12v299q58 -2 99 -18t64.5 -41t34.5 -54t13 -62h46q-4 102 -70.5 155t-186.5 60v74h-34v-74q-124 -1 -192.5 -48t-68.5 -132q0 -81 47 -121.5t163 -65.5l51 -11v-318z" />
    <glyph glyph-name="percent" unicode="%" horiz-adv-x="926" 
d="M231 337q85 0 129.5 53.5t44.5 139.5q0 89 -43.5 139.5t-130.5 50.5q-84 0 -129 -52t-45 -138q0 -89 44 -141t130 -52zM231 371q-68 0 -101 43.5t-33 115.5q0 71 33 113.5t101 42.5q69 0 101.5 -42t32.5 -114q0 -71 -32.5 -115t-101.5 -44zM695 -16q85 0 129.5 53.5
t44.5 139.5q0 89 -43.5 139.5t-130.5 50.5q-84 0 -129 -52t-45 -138q0 -89 44 -141t130 -52zM695 18q-68 0 -101 43.5t-33 115.5q0 71 33 113.5t101 42.5q69 0 101.5 -42t32.5 -114q0 -71 -32.5 -115t-101.5 -44zM170 -22h40l529 748h-40z" />
    <glyph glyph-name="ampersand" unicode="&#x26;" horiz-adv-x="741" 
d="M344 399q30 14 55 28.5t50 36t41 51.5t16 66q0 66 -47.5 102.5t-119.5 36.5q-46 0 -78.5 -13.5t-52 -34.5t-28 -45t-8.5 -46q0 -45 21 -77.5t77 -91.5l3 -4l-2 -1q-45 -18 -76.5 -33.5t-63 -39.5t-51 -58.5t-19.5 -79.5q0 -41 16 -79t47.5 -68t81 -47.5t113.5 -17.5
q89 0 153.5 25.5t123.5 86.5l100 -96h66l-139 132q24 30 40 74.5t16 84.5h-46q0 -30 -11.5 -68t-28.5 -61zM218 583q0 39 31.5 68t89.5 29q19 0 40 -5.5t39.5 -17.5t30 -32t11.5 -48q0 -30 -13 -53.5t-34 -40.5t-42.5 -28.5t-51.5 -25.5l-2 -1v0q-14 13 -28 26.5t-30.5 34
t-28.5 45.5t-12 49zM566 127q-10 -12 -28 -28.5t-48.5 -33.5t-72.5 -29t-93 -12q-94 0 -155.5 45.5t-61.5 127.5q0 34 14 61t39.5 48t60 38.5t81.5 35.5z" />
    <glyph glyph-name="quotesingle" unicode="'" horiz-adv-x="222" 
d="M91 484h40v230h-40v-230z" />
    <glyph glyph-name="parenleft" unicode="(" horiz-adv-x="296" 
d="M271 -190q-41 65 -67.5 115t-45.5 102t-28.5 109t-9.5 126t9.5 126.5t28.5 108.5t45.5 101t67.5 116h-40q-78 -111 -120.5 -221.5t-42.5 -230.5t42.5 -230.5t120.5 -221.5h40z" />
    <glyph glyph-name="parenright" unicode=")" horiz-adv-x="296" 
d="M25 714q41 -65 67.5 -115t45.5 -101.5t28.5 -109t9.5 -126.5t-9.5 -126.5t-28 -108.5t-45.5 -101t-68 -116h40q79 111 121 221.5t42 230.5t-42 230.5t-121 221.5h-40z" />
    <glyph glyph-name="asterisk" unicode="*" horiz-adv-x="408" 
d="M83 424l28 -22l93 110l93 -110l28 22l-95 112l139 50l-14 33l-134 -46v141h-34v-141l-134 46l-14 -33l139 -50z" />
    <glyph glyph-name="plus" unicode="+" horiz-adv-x="600" 
d="M47 233h233v-233h40v233h233v40h-233v233h-40v-233h-233v-40z" />
    <glyph glyph-name="comma" unicode="," horiz-adv-x="222" 
d="M85 0h18v-15q0 -27 -8 -49.5t-28 -31.5v-34q37 15 53.5 48.5t16.5 81.5v100h-52v-100z" />
    <glyph glyph-name="hyphen" unicode="-" horiz-adv-x="407" 
d="M75 247h257v46h-257v-46z" />
    <glyph glyph-name="period" unicode="." horiz-adv-x="222" 
d="M85 0h52v100h-52v-100z" />
    <glyph glyph-name="slash" unicode="/" horiz-adv-x="407" 
d="M418 730h-46l-383 -746h46z" />
    <glyph glyph-name="zero" unicode="0" 
d="M619 352q0 77 -15.5 143t-50 117t-91.5 79.5t-138 28.5q-79 0 -136 -29t-92 -80t-51 -117t-16 -142q0 -77 16 -142.5t50.5 -116.5t91.5 -80t137 -29q81 0 138 28.5t91.5 79.5t50 116.5t15.5 143.5zM573 352q0 -69 -12 -127t-40.5 -103.5t-77 -71.5t-119.5 -26
q-69 0 -118 26.5t-77.5 72.5t-41 104t-12.5 125t12.5 125t41.5 104t77.5 72.5t117.5 26.5q70 0 119 -26t77.5 -71.5t40.5 -104t12 -126.5z" />
    <glyph glyph-name="one" unicode="1" horiz-adv-x="426" 
d="M293 704h-40q-12 -27 -38 -50.5t-59.5 -41t-67.5 -27.5t-63 -11v-40q61 6 120 28.5t102 62.5v-625h46v704z" />
    <glyph glyph-name="two" unicode="2" 
d="M590 40h-480q0 25 18.5 51t47.5 49.5t56 40.5t68 42q8 4 13 7q90 52 133 79.5t72.5 56.5t43 63.5t13.5 83.5q0 95 -62.5 151t-184.5 56q-128 0 -192 -61t-66 -190h46q0 102 49.5 156.5t155.5 54.5q100 0 154 -44t54 -125q0 -40 -13 -70t-39 -54.5t-62 -47.5t-108 -64
q-4 -3 -11 -7q-70 -39 -110.5 -66.5t-66.5 -55t-40.5 -62t-20.5 -84.5h532v40z" />
    <glyph glyph-name="three" unicode="3" 
d="M288 356q53 0 93 -3.5t80 -18t65.5 -48.5t25.5 -90q0 -51 -19.5 -85t-51 -53t-70 -26.5t-78.5 -7.5q-116 0 -176.5 51t-60.5 159h-46q2 -127 74 -188.5t204 -61.5t201 55.5t69 146.5q0 53 -16.5 90.5t-42.5 59t-56 31.5t-59 11v2q73 6 114.5 44t41.5 111
q0 88 -64.5 136.5t-178.5 48.5q-124 0 -194 -57.5t-74 -178.5h46q0 100 59 148t163 48q41 0 76 -7.5t62.5 -25t43 -47t15.5 -72.5q0 -47 -21.5 -74.5t-57 -39.5t-73.5 -15t-94 -3v-40z" />
    <glyph glyph-name="four" unicode="4" 
d="M41 226v-47h386v-179h46v179h134v40h-134v485h-49zM425 646h2v-427h-340z" />
    <glyph glyph-name="five" unicode="5" 
d="M73 335h46q27 39 81 67t125 28q58 0 101.5 -17t71 -46t40 -64t12.5 -73q0 -100 -59.5 -153t-165.5 -53q-101 0 -160 46t-67 143h-46q4 -108 78.5 -168.5t188.5 -60.5q126 0 201.5 64t75.5 184q0 106 -70 171q-34 32 -83 49.5t-108 17.5q-58 0 -113 -19.5t-93 -57.5h-2
l60 271h371v40h-407z" />
    <glyph glyph-name="six" unicode="6" 
d="M584 536q-5 83 -69.5 133.5t-167.5 50.5q-90 0 -149 -30.5t-91 -84t-44 -122.5t-12 -158q0 -75 14 -136.5t46.5 -107.5t86.5 -71.5t131 -25.5q61 0 111 18.5t85 52t53.5 78.5t18.5 97q0 112 -73.5 176t-188.5 64q-95 0 -156 -44t-80 -103h-2q0 74 8.5 134.5t33 111.5
t74 81t126.5 30q37 0 71 -8t61.5 -25t45 -45t21.5 -66h46zM338 430q101 0 157 -56t56 -144q0 -93 -59.5 -149.5t-155.5 -56.5q-67 0 -112 20.5t-70 52.5t-35 66.5t-10 66.5q0 89 60.5 144.5t168.5 55.5z" />
    <glyph glyph-name="seven" unicode="7" horiz-adv-x="593" 
d="M38 664h471v-2q-142 -130 -227 -297t-115 -365h52q15 108 41.5 195.5t66 164t95 148.5t133.5 151v45h-517v-40z" />
    <glyph glyph-name="eight" unicode="8" 
d="M88 192q0 83 59 127t177 44q119 0 177.5 -44t58.5 -127q0 -49 -21.5 -82.5t-56 -52t-75 -26t-83.5 -7.5q-119 0 -177.5 45.5t-58.5 122.5zM42 191q0 -99 72 -153t210 -54t210 54t72 153q0 49 -16.5 84t-43.5 57t-57 33.5t-63 17.5v2q80 18 113 58.5t33 102.5
q0 49 -21.5 83.5t-57.5 54t-79 28t-90 8.5t-90 -8.5t-79 -28t-57.5 -54t-21.5 -83.5q0 -62 33 -102.5t113 -58.5v-2q-32 -5 -63 -17t-57.5 -34t-43 -57t-16.5 -84zM122 538q0 42 17 70t45.5 43.5t63.5 22t76 6.5q38 0 73 -7t64.5 -22.5t47 -43t17.5 -67.5q0 -41 -17.5 -68
t-46.5 -42t-63.5 -21t-74.5 -6q-38 0 -73 6t-64.5 20.5t-47 41.5t-17.5 67z" />
    <glyph glyph-name="nine" unicode="9" 
d="M64 168q5 -83 69.5 -133.5t167.5 -50.5q90 0 149 30.5t91 84t44 122.5t12 158q0 75 -14 136.5t-46.5 107.5t-86.5 71.5t-131 25.5q-61 0 -111 -18.5t-85 -51.5t-53.5 -78.5t-18.5 -97.5q0 -112 73.5 -176t188.5 -64q95 0 156 44t80 103h2q0 -74 -8.5 -134.5t-33 -111
t-73.5 -81t-127 -30.5q-37 0 -71 8t-61.5 25t-45 45t-21.5 66h-46zM310 274q-101 0 -157 56t-56 144q0 94 59.5 150t155.5 56q67 0 112 -20.5t70 -52.5t35 -66.5t10 -66.5q0 -89 -60.5 -144.5t-168.5 -55.5z" />
    <glyph glyph-name="colon" unicode=":" horiz-adv-x="222" 
d="M85 395h52v100h-52v-100zM85 0h52v100h-52v-100z" />
    <glyph glyph-name="semicolon" unicode=";" horiz-adv-x="222" 
d="M85 0h18v-15q0 -27 -8 -49.5t-28 -31.5v-34q37 15 53.5 48.5t16.5 81.5v100h-52v-100zM85 395h52v100h-52v-100z" />
    <glyph glyph-name="less" unicode="&#x3c;" horiz-adv-x="600" 
d="M47 228l506 -238v40l-472 223l472 223v40l-506 -236v-52z" />
    <glyph glyph-name="equal" unicode="=" horiz-adv-x="600" 
d="M553 370h-506v-40h506v40zM553 176h-506v-40h506v40z" />
    <glyph glyph-name="greater" unicode="&#x3e;" horiz-adv-x="600" 
d="M47 -10l506 236v52l-506 238v-40l472 -223l-472 -223v-40z" />
    <glyph glyph-name="question" unicode="?" horiz-adv-x="630" 
d="M326 184v33q0 26 5 43t16.5 30.5t29 26.5t54.5 37q73 47 101.5 86t28.5 100q0 94 -69 142t-184 48q-120 0 -188.5 -58.5t-69.5 -177.5h46q1 100 56.5 148t161.5 48q39 0 75 -9t64.5 -27.5t45 -48t16.5 -68.5q0 -25 -5.5 -43.5t-18 -35t-34 -33.5t-56.5 -41
q-42 -28 -62 -43.5t-33.5 -33t-19.5 -41t-6 -59.5v-23h46zM277 0h52v100h-52v-100z" />
    <glyph glyph-name="at" unicode="@" horiz-adv-x="800" 
d="M336 166q-44 0 -73.5 33.5t-29.5 87.5q0 39 14.5 84.5t40.5 85t61.5 64.5t75.5 25q39 0 63.5 -27t24.5 -90q0 -36 -14.5 -81.5t-39.5 -87t-57 -68t-66 -26.5zM543 493h-2q-5 39 -38 63t-74 24q-50 0 -93.5 -25.5t-75.5 -69.5t-49.5 -97t-17.5 -106q0 -67 37 -108.5
t92 -41.5q38 0 74 18.5t61 52.5h2q2 -35 21.5 -53t51.5 -18q37 0 79.5 21t79.5 60.5t59.5 94.5t22.5 120q0 63 -25 118t-72.5 96.5t-113 64.5t-144.5 23q-85 0 -157.5 -28.5t-124.5 -80t-80.5 -119.5t-28.5 -145t29 -145t80.5 -119.5t119.5 -80t144 -28.5q97 0 172 28.5
t128 96.5h-46q-43 -45 -111.5 -65t-144.5 -20q-67 0 -127.5 26t-106.5 72t-71.5 107t-25.5 128q0 69 25 129.5t72 106.5t113 71.5t145 25.5q67 0 124 -20t99 -57t65 -87t23 -108q0 -53 -17.5 -98.5t-47 -78.5t-63.5 -51t-66 -18q-40 0 -40 30q0 12 9 41q2 5 3 8l101 309h-46
z" />
    <glyph glyph-name="A" unicode="A" horiz-adv-x="686" 
d="M-11 0h52l105 230h394l105 -230h52l-328 714h-52zM343 662l179 -392h-358z" />
    <glyph glyph-name="B" unicode="B" horiz-adv-x="722" 
d="M106 674h311q40 0 69.5 -3t57 -16t45.5 -42t18 -78q0 -50 -21.5 -81t-52 -44t-57.5 -16.5t-52 -3.5h-318v284zM106 350h310q43 0 76 -3.5t65 -17t53 -45t21 -84.5q0 -55 -24.5 -89t-59 -49t-64 -18.5t-55.5 -3.5h-322v310zM60 0h378q70 0 117.5 18.5t74 48.5t37 63
t10.5 66q0 27 -7 54.5t-24.5 53.5t-50.5 44.5t-82 23.5v2q75 16 107.5 60.5t32.5 103.5q0 85 -53 130.5t-155 45.5h-385v-714z" />
    <glyph glyph-name="C" unicode="C" horiz-adv-x="796" 
d="M714 271q-20 -115 -102.5 -181t-202.5 -66q-79 0 -142 26t-106 72.5t-64.5 106.5t-21.5 128t23.5 128t67.5 106.5t106.5 72.5t136.5 26q107 0 188 -51t105 -149h46q-26 117 -116.5 178.5t-222.5 61.5q-94 0 -166.5 -32.5t-119.5 -87t-70.5 -120.5t-23.5 -133
q0 -87 28.5 -156.5t79.5 -118t121 -73.5t151 -25q77 0 140 24.5t108 66t71 93t32 103.5h-46z" />
    <glyph glyph-name="D" unicode="D" horiz-adv-x="759" 
d="M60 0h326q161 0 244.5 97t83.5 260q0 100 -25 169.5t-69.5 110.5t-101.5 59t-124 18h-334v-714zM106 674h278q65 0 117 -18t89.5 -56.5t57.5 -99t20 -143.5q0 -158 -74 -237.5t-199 -79.5h-289v634z" />
    <glyph glyph-name="E" unicode="E" 
d="M60 0h570v40h-524v310h497v40h-497v284h518v40h-564v-714z" />
    <glyph glyph-name="F" unicode="F" horiz-adv-x="593" 
d="M60 0h46v350h446v40h-446v284h472v40h-518v-714z" />
    <glyph glyph-name="G" unicode="G" horiz-adv-x="833" 
d="M440 316h287q-8 -136 -90.5 -214t-217.5 -78q-79 0 -142 26t-106 72.5t-64.5 106.5t-21.5 128t23.5 128t67.5 106.5t106.5 72.5t136.5 26q111 0 191 -52t102 -148h46q-26 114 -116 177t-223 63q-94 0 -166.5 -32.5t-119.5 -87t-70.5 -120.5t-23.5 -133q0 -87 28.5 -156.5
t79.5 -118t121 -73.5t151 -25q106 0 189.5 49.5t122.5 142.5h2v-176h40v356h-333v-40z" />
    <glyph glyph-name="H" unicode="H" horiz-adv-x="759" 
d="M60 0h46v356h547v-356h46v714h-46v-318h-547v318h-46v-714z" />
    <glyph glyph-name="I" unicode="I" horiz-adv-x="166" 
d="M60 0h46v714h-46v-714z" />
    <glyph glyph-name="J" unicode="J" horiz-adv-x="537" 
d="M24 228v-17q0 -64 18.5 -108t50.5 -70.5t73 -37.5t87 -11q106 0 165 58t59 173v499h-46v-503q0 -93 -43.5 -140t-134.5 -47q-59 0 -97 19t-56 47.5t-24 58.5t-6 62v17h-46z" />
    <glyph glyph-name="K" unicode="K" horiz-adv-x="704" 
d="M60 0h46v246l181 144l368 -390h64l-396 419l370 295h-73l-514 -410v410h-46v-714z" />
    <glyph glyph-name="L" unicode="L" horiz-adv-x="574" 
d="M60 0h514v40h-468v674h-46v-714z" />
    <glyph glyph-name="M" unicode="M" horiz-adv-x="962" 
d="M65 0h46v650h2l345 -650h46l345 650h2v-650h46v714h-69l-347 -656l-347 656h-69v-714z" />
    <glyph glyph-name="N" unicode="N" horiz-adv-x="759" 
d="M60 0h46v650h2l533 -650h58v714h-46v-650h-2l-533 650h-58v-714z" />
    <glyph glyph-name="O" unicode="O" horiz-adv-x="816" 
d="M75 357q0 65 22 125t65 107t105.5 74t140.5 27t140.5 -27t105.5 -74t65 -107t22 -125t-22 -124.5t-65 -107t-105.5 -74.5t-140.5 -27t-140.5 27t-105.5 74t-65 107t-22 125zM29 357q0 -58 20 -122t64 -121t118.5 -93.5t176.5 -36.5q103 0 177 36t118 93.5t64 121.5
t20 122t-20 122t-64 121.5t-118 93.5t-177 36q-102 0 -176 -36t-118.5 -93.5t-64.5 -121.5t-20 -122z" />
    <glyph glyph-name="P" unicode="P" horiz-adv-x="667" 
d="M60 0h46v314h319q113 0 168.5 54t55.5 148q0 58 -18.5 97.5t-50.5 61.5t-69 30.5t-79 8.5h-372v-714zM106 674h307q35 0 63.5 -3.5t58 -18t49 -48.5t19.5 -90q0 -45 -15 -76.5t-40.5 -49.5t-57 -26t-66.5 -8h-318v320z" />
    <glyph glyph-name="Q" unicode="Q" horiz-adv-x="816" 
d="M469 149l114 -80q-75 -45 -175 -45q-78 0 -140.5 27t-105.5 74t-65 107t-22 125t22 125t65 107t105.5 74t140.5 27t140.5 -27t105.5 -74t65 -107t22 -125q0 -77 -31 -146t-90 -118l-127 91zM752 -51l24 35l-119 84q34 29 59 65t40.5 74.5t23 77t7.5 72.5q0 58 -20 122
t-64 121.5t-118 93.5t-177 36q-102 0 -176 -36t-118.5 -93.5t-64.5 -121.5t-20 -122t20 -122t64 -121t118.5 -93.5t176.5 -36.5q65 0 118.5 15t95.5 42z" />
    <glyph glyph-name="R" unicode="R" horiz-adv-x="704" 
d="M60 0h46v325h318q54 0 88.5 -7.5t55 -25.5t30 -48t10.5 -78q2 -86 6.5 -121.5t13.5 -44.5h46q-10 19 -14 59.5t-6 138.5q-1 60 -35.5 100t-98.5 48v2q71 16 108.5 66.5t37.5 110.5q0 55 -18 92t-50 58t-75 30t-98 9h-365v-714zM106 674h323q40 0 74 -7t60.5 -23.5
t41.5 -45t15 -70.5q0 -57 -23 -91t-56.5 -49.5t-63.5 -19t-60 -3.5h-311v309z" />
    <glyph glyph-name="S" unicode="S" horiz-adv-x="667" 
d="M28 236q0 -58 18 -104t57 -79.5t101.5 -51t147.5 -17.5q80 0 136 17t89 46t47.5 64.5t14.5 74.5q0 82 -54 124t-167 64l-147 29q-99 20 -134 51t-35 90q0 32 12 58.5t39 46t72 30.5t108 11q67 0 113.5 -15.5t73 -41t39 -56.5t14.5 -65h46q-4 111 -81.5 164.5t-217.5 53.5
q-129 0 -199.5 -51t-70.5 -134q0 -80 48.5 -121t167.5 -66l133 -28q57 -12 93.5 -25t57 -30t29 -39t8.5 -53q0 -33 -13 -61.5t-41.5 -50.5t-74.5 -34.5t-110 -12.5q-140 0 -206.5 54.5t-67.5 157.5h-46z" />
    <glyph glyph-name="T" unicode="T" horiz-adv-x="592" 
d="M-15 674h288v-674h46v674h288v40h-622v-40z" />
    <glyph glyph-name="U" unicode="U" horiz-adv-x="740" 
d="M54 264q0 -280 316 -280t316 280v450h-46v-448q0 -120 -63.5 -181t-206.5 -61t-206.5 61t-63.5 181v448h-46v-450z" />
    <glyph glyph-name="V" unicode="V" horiz-adv-x="668" 
d="M308 0h52l317 714h-52l-291 -656l-291 656h-52z" />
    <glyph glyph-name="W" unicode="W" horiz-adv-x="1018" 
d="M220 0h58l230 650h2l230 -650h58l235 714h-52l-212 -650h-2l-229 650h-58l-229 -650h-2l-212 650h-52z" />
    <glyph glyph-name="X" unicode="X" 
d="M-9 0h58l275 328l272 -328h61l-302 363l292 351h-58l-265 -315l-260 315h-62l292 -351z" />
    <glyph glyph-name="Y" unicode="Y" horiz-adv-x="668" 
d="M311 300v-300h46v300l331 414h-58l-296 -371l-290 371h-64z" />
    <glyph glyph-name="Z" unicode="Z" horiz-adv-x="611" 
d="M-5 0h621v40h-569l561 628v46h-580v-40h528l-561 -625v-49z" />
    <glyph glyph-name="bracketleft" unicode="[" horiz-adv-x="296" 
d="M96 -190h166v40h-120v824h120v40h-166v-904z" />
    <glyph glyph-name="backslash" unicode="\" horiz-adv-x="407" 
d="M372 -16h46l-383 746h-46z" />
    <glyph glyph-name="bracketright" unicode="]" horiz-adv-x="296" 
d="M154 -150h-120v-40h166v904h-166v-40h120v-824z" />
    <glyph glyph-name="asciicircum" unicode="^" horiz-adv-x="600" 
d="M39 251h40l221 419l221 -419h40l-234 453h-52z" />
    <glyph glyph-name="underscore" unicode="_" horiz-adv-x="500" 
d="M500 -125v50h-500v-50h500z" />
    <glyph glyph-name="grave" unicode="`" horiz-adv-x="166" 
d="M103 593h45l-144 142h-58z" />
    <glyph glyph-name="a" unicode="a" horiz-adv-x="593" 
d="M476 192q0 -43 -21.5 -75.5t-56.5 -53t-76.5 -30t-82.5 -9.5q-28 0 -55.5 4t-53.5 16t-42 36t-16 60q0 54 38 78t109 29l173 12q61 4 82 27h2v-94zM95 354q11 72 52 103t139 31q107 0 148.5 -29.5t41.5 -86.5q0 -44 -16.5 -57t-61.5 -16l-179 -12q-42 -2 -76 -11
t-60.5 -26t-41.5 -44.5t-15 -65.5q0 -54 24.5 -87t60 -47.5t65.5 -18t60 -3.5q31 0 62.5 4t66 16.5t65 36.5t50.5 61h2q0 -62 10 -87t53 -25q34 0 56 8v40q-24 -8 -45 -8q-23 0 -28.5 13.5t-5.5 47.5v287q0 83 -58.5 116.5t-176.5 33.5q-117 0 -171 -39t-67 -135h46z" />
    <glyph glyph-name="b" unicode="b" horiz-adv-x="630" 
d="M56 0h46v112h2q21 -53 78.5 -90.5t148.5 -37.5q66 0 117.5 21.5t86 59.5t52 87.5t17.5 104.5q0 60 -20.5 110t-57.5 86t-87 55.5t-108 19.5q-86 0 -143 -37t-84 -88h-2v311h-46v-714zM336 24q-68 0 -115.5 21.5t-74.5 55.5t-38.5 73t-11.5 77q0 64 21 110.5t55 74t75 40
t83 12.5q45 0 86 -14.5t73 -43t50.5 -72t18.5 -100.5q0 -108 -62 -171t-160 -63z" />
    <glyph glyph-name="c" unicode="c" horiz-adv-x="611" 
d="M578 351q-2 33 -21.5 64.5t-54 57t-82.5 40.5t-105 15q-59 0 -111.5 -18t-92.5 -53.5t-62.5 -87.5t-22.5 -118q0 -59 21 -108t60 -85t92.5 -55t115.5 -19q102 0 176.5 49.5t93.5 145.5h-46q-16 -76 -79 -115.5t-145 -39.5q-65 0 -112.5 22.5t-76 57.5t-41.5 74t-13 73
q0 47 15.5 89.5t46 76t76.5 52.5t105 19q45 0 84 -12t68 -32t46 -44.5t19 -48.5h46z" />
    <glyph glyph-name="d" unicode="d" horiz-adv-x="630" 
d="M528 0h46v714h-46v-311h-2q-27 51 -84 88t-143 37q-58 0 -108 -19.5t-87 -55.5t-57.5 -86t-20.5 -110q0 -55 17.5 -104.5t52.5 -87.5t86 -59.5t117 -21.5q91 0 148.5 37.5t78.5 90.5h2v-112zM294 24q-97 0 -159.5 63t-62.5 171q0 57 18.5 100.5t50.5 72t73 43t86 14.5
q42 0 82.5 -12.5t75.5 -40.5t55.5 -74t20.5 -110q0 -38 -11.5 -77t-38.5 -73t-74.5 -55.5t-115.5 -21.5z" />
    <glyph glyph-name="e" unicode="e" horiz-adv-x="611" 
d="M594 246q-1 126 -76 204t-206 78q-77 0 -133 -25t-89.5 -66t-48.5 -87t-15 -90q0 -127 77 -201.5t208 -74.5q104 0 170.5 45.5t98.5 140.5h-46q-10 -26 -22.5 -48t-36.5 -45t-63.5 -38t-95.5 -15q-113 0 -177.5 61.5t-66.5 160.5h522zM72 286q15 93 76.5 147.5
t158.5 54.5q94 0 157.5 -50.5t77.5 -151.5h-470z" />
    <glyph glyph-name="f" unicode="f" horiz-adv-x="296" 
d="M110 0h46v472h148v40h-148v91q0 27 10 43t24.5 23.5t28 9t27.5 1.5q17 0 37 -1.5t36 -4.5v40h-4q-53 6 -75 6q-75 0 -102.5 -32.5t-27.5 -98.5v-77h-120v-40h120v-472z" />
    <glyph glyph-name="g" unicode="g" 
d="M305 488q113 0 177 -57t64 -158q0 -111 -65.5 -169t-170.5 -58q-114 0 -176 58.5t-62 167.5q0 54 18.5 95t51.5 68t74.5 40t88.5 13zM546 408l-2 1q-17 34 -43.5 57.5t-59.5 37.5q-57 24 -136 24q-70 0 -123.5 -20.5t-88 -57t-51 -82.5t-16.5 -98q0 -53 16 -100.5
t50 -84.5t87 -58t125 -21q83 0 145 30.5t95 92.5h2v-106q0 -40 -9.5 -75t-34.5 -64t-72 -46.5t-118 -17.5q-108 0 -159 34t-60 98h-46q12 -92 77 -132t188 -40q85 0 141 20.5t86 55.5t41.5 77t11.5 92v487h-46v-104z" />
    <glyph glyph-name="h" unicode="h" horiz-adv-x="611" 
d="M56 0h46v299q0 36 13 70t40 61t68.5 42.5t95.5 15.5q55 0 92.5 -12t58.5 -35t30 -54.5t9 -72.5v-314h46v316q0 37 -5 68.5t-27 65t-71.5 56t-131.5 22.5q-81 0 -135 -33t-81 -85h-2v304h-46v-714z" />
    <glyph glyph-name="i" unicode="i" horiz-adv-x="166" 
d="M60 0h46v512h-46v-512zM60 608h46v106h-46v-106z" />
    <glyph glyph-name="j" unicode="j" horiz-adv-x="166" 
d="M106 512h-46v-564q0 -34 -2 -54.5t-9.5 -37.5t-25.5 -26.5t-49 -9.5q-15 0 -33 2t-29 4v-40q14 -3 28.5 -4.5t33.5 -1.5q65 0 98.5 31t33.5 97v604zM60 608h46v106h-46v-106z" />
    <glyph glyph-name="k" unicode="k" horiz-adv-x="556" 
d="M56 0h46v188l138 102l256 -290h63l-283 319l259 193h-68l-365 -272v474h-46v-714z" />
    <glyph glyph-name="l" unicode="l" horiz-adv-x="166" 
d="M60 0h46v714h-46v-714z" />
    <glyph glyph-name="m" unicode="m" horiz-adv-x="964" 
d="M56 0h46v305q0 87 52.5 135t138.5 48q85 0 125.5 -38.5t40.5 -108.5v-341h46v315q0 82 49 127.5t142 45.5q85 0 125.5 -43.5t40.5 -112.5v-332h46v347q0 88 -52.5 134.5t-160.5 46.5q-142 0 -198 -119q-18 55 -63.5 87t-132.5 32q-62 0 -114.5 -27t-82.5 -76h-2v87h-46
v-512z" />
    <glyph glyph-name="n" unicode="n" horiz-adv-x="611" 
d="M56 0h46v299q0 36 13 70t40 61t68.5 42.5t95.5 15.5q55 0 92.5 -12t58.5 -35t30 -54.5t9 -72.5v-314h46v316q0 37 -5 68.5t-27 65t-71.5 56t-131.5 22.5q-81 0 -135 -33t-81 -85h-2v102h-46v-512z" />
    <glyph glyph-name="o" unicode="o" horiz-adv-x="630" 
d="M72 256q0 45 15.5 86.5t46 74.5t77 52t104.5 19q59 0 104.5 -19t76.5 -52t46.5 -74.5t15.5 -86.5t-15.5 -86.5t-46 -74.5t-76.5 -52t-105 -19q-58 0 -104 19t-77 52t-46.5 74.5t-15.5 86.5zM26 256q0 -54 19.5 -103.5t57 -87.5t92 -59.5t120.5 -21.5q67 0 121 21.5
t91.5 59.5t57 87.5t19.5 103.5t-19.5 103.5t-57 87.5t-91.5 59.5t-121 21.5q-66 0 -120.5 -21.5t-92 -59.5t-57 -87.5t-19.5 -103.5z" />
    <glyph glyph-name="p" unicode="p" horiz-adv-x="630" 
d="M56 -202h46v311h2q27 -51 84 -88t143 -37q58 0 108 19.5t87 55.5t57.5 86t20.5 110q0 55 -17.5 104.5t-52.5 87.5t-86 59.5t-117 21.5q-91 0 -148.5 -37.5t-78.5 -90.5h-2v112h-46v-714zM336 488q98 0 160 -63t62 -171q0 -57 -18.5 -100.5t-50.5 -72t-73 -43t-86 -14.5
q-42 0 -82.5 12.5t-75 40.5t-55.5 74t-21 110q0 38 11.5 77t38.5 73t74.5 55.5t115.5 21.5z" />
    <glyph glyph-name="q" unicode="q" horiz-adv-x="630" 
d="M528 -202h46v714h-46v-112h-2q-21 53 -78.5 90.5t-148.5 37.5q-66 0 -117.5 -21.5t-86 -59.5t-52 -87.5t-17.5 -104.5q0 -60 20.5 -110t57.5 -86t87 -55.5t108 -19.5q86 0 143 37t84 88h2v-311zM294 488q68 0 115.5 -21.5t74.5 -55.5t38.5 -73t11.5 -77q0 -64 -21 -110.5
t-55 -74t-75 -40t-83 -12.5q-45 0 -86 14.5t-73 43t-50.5 72t-18.5 100.5q0 108 62.5 171t159.5 63z" />
    <glyph glyph-name="r" unicode="r" horiz-adv-x="352" 
d="M56 0h46v277q0 84 52.5 144.5t146.5 60.5q21 0 32.5 -1.5t20.5 -4.5v46q-21 6 -38 6q-76 0 -131.5 -35t-80.5 -102h-2v121h-46v-512z" />
    <glyph glyph-name="s" unicode="s" horiz-adv-x="537" 
d="M496 362q-2 34 -14 62.5t-38 52t-72 37.5t-114 14q-62 0 -104.5 -13.5t-66.5 -35.5t-34 -47t-10 -49q0 -32 13 -56t34 -38.5t45.5 -23t51.5 -11.5l180 -24q48 -6 75.5 -28.5t27.5 -64.5q0 -56 -44 -84.5t-143 -28.5q-70 0 -113.5 13t-64.5 33t-28 41t-10 49h-46
q5 -92 71.5 -134t178.5 -42q41 0 81.5 5t78 21t61.5 47t24 80q0 65 -41.5 97t-119.5 43l-163 22q-49 7 -76 27t-27 60q0 45 39.5 73.5t127.5 28.5q98 0 143.5 -30.5t50.5 -95.5h46z" />
    <glyph glyph-name="t" unicode="t" horiz-adv-x="315" 
d="M106 512h-116v-40h116v-344q0 -78 24 -108t101 -30q49 0 78 6v40q-11 -1 -21 -2q-29 -4 -43 -4q-48 0 -70.5 14.5t-22.5 58.5v369h152v40h-152v173h-46v-173z" />
    <glyph glyph-name="u" unicode="u" horiz-adv-x="611" 
d="M555 512h-46v-299q0 -36 -13 -70t-40 -61t-68 -42.5t-96 -15.5t-92.5 12.5t-58.5 35t-30 54t-9 72.5v314h-46v-316q0 -36 5 -68t27 -65.5t71.5 -56t131.5 -22.5t135.5 33t80.5 85h2v-102h46v512z" />
    <glyph glyph-name="v" unicode="v" horiz-adv-x="556" 
d="M255 0h46l253 512h-52l-224 -466l-224 466h-52z" />
    <glyph glyph-name="w" unicode="w" horiz-adv-x="870" 
d="M231 58l-185 454h-52l209 -512h52l180 460l180 -460h52l209 512h-52l-179 -454l-181 454h-58z" />
    <glyph glyph-name="x" unicode="x" horiz-adv-x="537" 
d="M-11 0h58l219 235l218 -235h64l-250 270l225 242h-58l-196 -211l-195 211h-64l227 -245z" />
    <glyph glyph-name="y" unicode="y" horiz-adv-x="519" 
d="M246 0l-26 -52q-16 -32 -26.5 -49t-21.5 -26.5t-25 -13t-38 -3.5h-55v-40h64q55 0 82 23t50 71l282 602h-52l-211 -461l-230 461h-52z" />
    <glyph glyph-name="z" unicode="z" horiz-adv-x="519" 
d="M12 0h495v40h-443l429 438v34h-455v-40h391l-417 -426v-46z" />
    <glyph glyph-name="braceleft" unicode="{" horiz-adv-x="296" 
d="M53 242q21 -1 35 -14.5t22.5 -36t11.5 -50t3 -61.5v-152q0 -65 22 -91.5t66 -26.5h58v40h-48q-32 0 -42 16.5t-10 79.5v151q0 40 -6.5 70t-17 48.5t-23 29.5t-25.5 17q13 6 25.5 17t23 30t17 48.5t6.5 69.5v151q0 63 10 79.5t42 16.5h48v40h-58q-44 0 -66 -26.5
t-22 -91.5v-152q0 -33 -3 -61t-11.5 -50.5t-22.5 -36t-35 -14.5v-40z" />
    <glyph glyph-name="bar" unicode="|" horiz-adv-x="222" 
d="M91 -16h40v746h-40v-746z" />
    <glyph glyph-name="braceright" unicode="}" horiz-adv-x="296" 
d="M125 -54q0 -63 -10 -79.5t-42 -16.5h-48v-40h58q44 0 66 26.5t22 91.5v152q0 34 3.5 61.5t11.5 50t22 36t35 14.5v40q-21 1 -35 14.5t-22 36t-11.5 50.5t-3.5 61v152q0 65 -22 91.5t-66 26.5h-58v-40h48q32 0 42 -16.5t10 -79.5v-151q0 -40 6.5 -70t17 -48.5t23 -29.5
t25.5 -17q-13 -6 -25.5 -16.5t-23 -30t-17 -49t-6.5 -69.5v-151z" />
    <glyph glyph-name="asciitilde" unicode="~" horiz-adv-x="600" 
d="M101 192q14 32 37 53.5t62 21.5q17 0 43.5 -9.5t48.5 -20.5q39 -20 64 -29t50 -9q39 0 67.5 23.5t54.5 61.5l-29 30q-15 -29 -40.5 -52t-51.5 -23q-22 0 -40.5 7t-42.5 19q-16 9 -19 10l-3 1q-40 18 -60.5 24.5t-47.5 6.5q-43 0 -69.5 -20.5t-52.5 -62.5z" />
    <glyph glyph-name="exclamdown" unicode="&#xa1;" horiz-adv-x="258" 
d="M103 -202h52v191q0 66 -5 199q-3 94 -4 140h-34q-1 -46 -4 -140q-5 -133 -5 -199v-191zM103 412h52v100h-52v-100z" />
    <glyph glyph-name="cent" unicode="&#xa2;" 
d="M310 25q-59 4 -101.5 27.5t-68.5 57.5t-37.5 71t-11.5 70q0 92 57.5 160.5t161.5 75.5v-462zM310 -125h34v109q98 0 169 50.5t90 144.5h-46q-16 -75 -73.5 -115t-139.5 -40v464q43 -1 80 -13.5t65 -32t44 -43.5t18 -48h46q-2 32 -21 63.5t-52 56.5t-79 40.5t-101 16.5v92
h-34v-93q-55 -3 -103 -22.5t-84.5 -55t-57 -85.5t-20.5 -113q0 -56 19.5 -103.5t55 -83t84 -56t106.5 -23.5v-110z" />
    <glyph glyph-name="sterling" unicode="&#xa3;" 
d="M55 322h89q9 -15 17 -41t8 -48q0 -57 -31.5 -104.5t-97.5 -105.5l26 -39q28 15 45.5 23t33 12.5t32 6.5t40.5 2q23 0 46 -5t56 -16l3 -1q35 -11 60 -16.5t51 -5.5q42 0 88 20t87 63l-21 38q-28 -33 -67.5 -57t-86.5 -24q-19 0 -40 5t-55 16l-3 1q-34 11 -58 16.5t-47 5.5
q-30 0 -60 -6t-72 -30l-2 2q52 42 85.5 95t33.5 111q0 20 -4.5 38t-14.5 44h213v34h-227q-31 57 -48 97.5t-17 75.5q0 41 18 70t48.5 47t66.5 26t75 8q52 0 92 -10t69 -33t45 -62.5t16 -96.5h46q0 51 -12 93.5t-41.5 76t-82 53t-131.5 19.5t-131 -21t-78.5 -52t-36 -62
t-9.5 -56q0 -70 59 -173h-75v-34z" />
    <glyph glyph-name="currency" unicode="&#xa4;" 
d="M566 138l-55 54q30 33 45.5 74.5t15.5 85.5t-15.5 85.5t-45.5 75.5l55 54l-27 28l-54 -56q-35 30 -76.5 45.5t-84.5 15.5q-92 -2 -161 -60l-55 55l-28 -26l57 -56q-30 -34 -45.5 -75.5t-15.5 -85.5q2 -91 61 -161l-57 -55l28 -26l55 55q68 -61 161 -61q43 0 84.5 15.5
t76.5 45.5l54 -55zM122 352q0 41 15.5 78t43.5 65t65 43.5t78 15.5t78 -15.5t65 -43.5t43.5 -65t15.5 -78t-15.5 -78t-43.5 -65t-65 -43.5t-78 -15.5t-78 15.5t-65 43.5t-43.5 65t-15.5 78z" />
    <glyph glyph-name="yen" unicode="&#xa5;" 
d="M301 0h46v170h211v34h-211v96l12 16h199v34h-173l273 354h-58l-271 -354h-10l-265 354h-64l273 -354h-173v-34h199l12 -16v-96h-211v-34h211v-170z" />
    <glyph glyph-name="brokenbar" unicode="&#xa6;" horiz-adv-x="222" 
d="M91 -16h40v270h-40v-270zM91 460h40v270h-40v-270z" />
    <glyph glyph-name="section" unicode="&#xa7;" 
d="M530 549q0 97 -57.5 139t-167.5 42q-88 0 -142 -37t-54 -103q0 -42 17.5 -65t48.5 -43q-18 -5 -38.5 -13.5t-42 -24.5t-36 -41.5t-14.5 -61.5q0 -46 28.5 -80.5t105.5 -70.5l204 -95h1q56 -27 81.5 -50t25.5 -66q0 -35 -20 -56.5t-48.5 -30.5t-53.5 -11.5t-48 -2.5
q-87 0 -130.5 36t-43.5 112h-46q0 -59 20.5 -97t53.5 -57.5t69.5 -26.5t74.5 -7q44 0 81.5 6t68.5 22t49.5 45.5t18.5 74.5q0 43 -17 67t-44 43l-4 3q15 3 36.5 11t43.5 24t37.5 44t15.5 67q0 43 -29 76t-81 57l-266 123q-40 19 -56.5 40.5t-16.5 45.5q0 36 17 57.5t43 31.5
t49.5 12t51.5 2q59 0 94.5 -15.5t51 -38t19 -43.5t3.5 -44h46zM461 343q44 -20 64 -38q16 -14 24.5 -32t8.5 -41q0 -32 -16 -54.5t-38 -34.5t-41 -17t-27 -5l-236 109q-59 27 -84.5 50t-25.5 67q0 27 14 48.5t34 36t40 21.5t30 7z" />
    <glyph glyph-name="dieresis" unicode="&#xa8;" horiz-adv-x="166" 
d="M-46 598h46v106h-46v-106zM166 598h46v106h-46v-106z" />
    <glyph glyph-name="copyright" unicode="&#xa9;" horiz-adv-x="800" 
d="M67 357q0 68 25.5 128.5t72 107t107 72t128.5 25.5t128.5 -25.5t107 -72t72 -107t25.5 -128.5t-25.5 -128.5t-72 -107t-107 -72t-128.5 -25.5t-128.5 25.5t-107 72t-72 107t-25.5 128.5zM602 438q-11 72 -63.5 113.5t-126.5 41.5q-104 0 -165 -65t-61 -170
q0 -50 16 -93.5t46 -76t72 -50.5t92 -18q73 0 126.5 44.5t63.5 116.5h-40q-11 -60 -50.5 -93.5t-99.5 -33.5q-42 0 -76.5 16t-59 44t-37.5 65.5t-13 78.5q0 89 49.5 145t136.5 56q60 0 99.5 -32.5t50.5 -88.5h40zM27 357q0 -76 29 -144t80.5 -119.5t119.5 -80.5t144 -29
t144 29t119.5 80.5t80.5 119.5t29 144t-29 144t-80.5 119.5t-119.5 80.5t-144 29t-144 -29t-119.5 -80.5t-80.5 -119.5t-29 -144z" />
    <glyph glyph-name="ordfeminine" unicode="&#xaa;" horiz-adv-x="385" 
d="M306 521q0 -27 -14 -46.5t-37 -32t-49 -18.5t-50 -6q-59 0 -82 19t-23 48q0 28 21 44.5t65 19.5l113 8q23 1 36 6t20 11v-53zM340 633q0 28 -13 45t-35 26.5t-49.5 12.5t-61.5 3q-65 0 -107 -25t-42 -80h34q0 41 33 59t92 18q38 0 61.5 -6t35 -16t15 -22t3.5 -27
q0 -19 -14 -26.5t-40 -9.5l-112 -8q-123 -9 -123 -90q0 -19 6 -35.5t21 -30.5t42 -22.5t68 -8.5q20 0 39.5 2.5t40 10t39 23t31.5 38.5h2q0 -33 7.5 -47.5t37.5 -14.5q14 1 19 1t11 1q2 1 10 2v28q-20 -4 -29 -4q-15 0 -18.5 9t-3.5 30v164z" />
    <glyph glyph-name="guillemotleft" unicode="&#xab;" horiz-adv-x="444" 
d="M255 270l102 104v54l-136 -135v-46l136 -135v54zM107 270l102 104v54l-136 -135v-46l136 -135v54z" />
    <glyph glyph-name="logicalnot" unicode="&#xac;" horiz-adv-x="600" 
d="M513 108h40v262h-506v-40h466v-222z" />
    <glyph glyph-name="minus" unicode="&#xad;" horiz-adv-x="600" 
d="M47 233h506v40h-506v-40z" />
    <glyph glyph-name="minus" unicode="&#x2212;" horiz-adv-x="600" 
d="M47 233h506v40h-506v-40z" />
    <glyph glyph-name="registered" unicode="&#xae;" horiz-adv-x="800" 
d="M256 136h40v202h115l133 -202h46l-133 202q56 9 84.5 36t28.5 82q0 68 -36.5 95t-107.5 27h-170v-442zM296 544h130q49 0 76.5 -20t27.5 -68q0 -53 -34 -68.5t-106 -15.5h-94v172zM67 357q0 68 25.5 128.5t72 107t107 72t128.5 25.5t128.5 -25.5t107 -72t72 -107
t25.5 -128.5t-25.5 -128.5t-72 -107t-107 -72t-128.5 -25.5t-128.5 25.5t-107 72t-72 107t-25.5 128.5zM27 357q0 -76 29 -144t80.5 -119.5t119.5 -80.5t144 -29t144 29t119.5 80.5t80.5 119.5t29 144t-29 144t-80.5 119.5t-119.5 80.5t-144 29t-144 -29t-119.5 -80.5
t-80.5 -119.5t-29 -144z" />
    <glyph glyph-name="macron" unicode="&#xaf;" horiz-adv-x="166" 
d="M-108 640h382v34h-382v-34z" />
    <glyph glyph-name="degree" unicode="&#xb0;" horiz-adv-x="400" 
d="M55 575q0 -60 42.5 -102.5t102.5 -42.5t102.5 42.5t42.5 102.5t-42.5 102.5t-102.5 42.5t-102.5 -42.5t-42.5 -102.5zM89 575q0 46 32.5 78.5t78.5 32.5t78.5 -32.5t32.5 -78.5t-32.5 -78.5t-78.5 -32.5t-78.5 32.5t-32.5 78.5z" />
    <glyph glyph-name="plusminus" unicode="&#xb1;" horiz-adv-x="600" 
d="M47 278h233v-188h40v188h233v40h-233v188h-40v-188h-233v-40zM47 0h506v40h-506v-40z" />
    <glyph glyph-name="twosuperior" unicode="&#xb2;" horiz-adv-x="421" 
d="M383 322h-311q10 32 41 55t94 55q92 46 128.5 78t36.5 88q0 33 -13 56.5t-35 38t-49.5 21t-58.5 6.5q-170 0 -170 -149h34q0 57 33.5 89t102.5 32q50 0 86 -23t36 -71q0 -45 -27 -69t-97 -60q-13 -7 -28 -15q-44 -23 -67 -36.5t-40 -30t-27 -39t-14 -54.5h345v28z" />
    <glyph glyph-name="threesuperior" unicode="&#xb3;" horiz-adv-x="421" 
d="M187 500q32 0 58.5 -2.5t51.5 -11.5t40.5 -29t15.5 -53q0 -27 -12 -47t-32 -32t-44 -17.5t-49 -5.5q-66 0 -107 29.5t-41 96.5h-34q0 -81 47.5 -117.5t127.5 -36.5q35 0 66 6t56.5 20.5t40.5 40t15 62.5q0 52 -32 82t-81 30v2q46 5 73.5 26.5t27.5 65.5q0 31 -13.5 53
t-36 34.5t-48.5 18t-52 5.5q-84 0 -130 -33t-48 -109h34q0 59 38.5 86.5t99.5 27.5q22 0 43.5 -4t39 -13t28.5 -25.5t11 -40.5q0 -28 -15 -45t-39 -24.5t-47 -9.5t-53 -2v-28z" />
    <glyph glyph-name="acute" unicode="&#xb4;" horiz-adv-x="166" 
d="M162 735l-144 -142h45l157 142h-58z" />
    <glyph glyph-name="mu" unicode="&#xb5;" horiz-adv-x="611" 
d="M555 512h-46v-299q0 -36 -13 -70t-40 -61t-68 -42.5t-96 -15.5t-92.5 12.5t-58.5 35t-30 54t-9 72.5v314h-46v-714h46v266h2q24 -35 66.5 -57.5t120.5 -22.5q82 0 135.5 33t80.5 85h2v-102h46v512z" />
    <glyph glyph-name="paragraph" unicode="&#xb6;" horiz-adv-x="600" 
d="M258 -146h40v820h153v-820h40v860h-217q-106 0 -164.5 -50.5t-58.5 -145.5q0 -39 16 -74.5t44 -62t66 -42t81 -15.5v-470z" />
    <glyph glyph-name="periodcentered" unicode="&#xb7;" horiz-adv-x="222" 
d="M55 320q0 -23 16.5 -39.5t39.5 -16.5t39.5 16.5t16.5 39.5t-16.5 39.5t-39.5 16.5t-39.5 -16.5t-16.5 -39.5z" />
    <glyph glyph-name="periodcentered" unicode="&#x2219;" horiz-adv-x="222" 
d="M55 320q0 -23 16.5 -39.5t39.5 -16.5t39.5 16.5t16.5 39.5t-16.5 39.5t-39.5 16.5t-39.5 -16.5t-16.5 -39.5z" />
    <glyph glyph-name="cedilla" unicode="&#xb8;" horiz-adv-x="166" 
d="M17 -76l17 -15q13 6 26.5 9t32.5 3q24 0 42.5 -8.5t18.5 -29.5q0 -16 -9.5 -25.5t-23 -13.5t-25.5 -5t-24 -1q-18 0 -44.5 5.5t-45.5 12.5l-10 -28q25 -7 56 -12.5t55 -5.5q44 0 77.5 18.5t33.5 57.5q0 30 -26 46.5t-59 16.5q-15 0 -44 -6l-2 2l51 55h-34z" />
    <glyph glyph-name="onesuperior" unicode="&#xb9;" horiz-adv-x="388" 
d="M201 286h34v422h-31q-7 -17 -24 -31t-40 -26q-44 -21 -84 -23v-28q40 4 78 17.5t67 37.5v-369z" />
    <glyph glyph-name="ordmasculine" unicode="&#xba;" horiz-adv-x="410" 
d="M51 555q0 55 41 96t113 41t113 -41t41 -96t-41 -96t-113 -41t-113 41t-41 96zM17 555q0 -77 54 -121t134 -44t134 44t54 121t-54 121t-134 44t-134 -44t-54 -121z" />
    <glyph glyph-name="guillemotright" unicode="&#xbb;" horiz-adv-x="444" 
d="M337 270l-102 -104v-54l136 135v46l-136 135v-54zM189 270l-102 -104v-54l136 135v46l-136 135v-54z" />
    <glyph glyph-name="onequarter" unicode="&#xbc;" horiz-adv-x="972" 
d="M554 142v-33h245v-109h34v109h89v28h-89v285h-34zM799 137h-211l211 245v-245zM176 286h34v422h-31q-7 -17 -24 -31t-40 -26q-44 -21 -84 -23v-28q40 4 78 17.5t67 37.5v-369zM203 -16h40l457 736h-40z" />
    <glyph glyph-name="onehalf" unicode="&#xbd;" horiz-adv-x="972" 
d="M203 -16h40l457 736h-40zM176 286h34v422h-31q-7 -17 -24 -31t-40 -26q-44 -21 -84 -23v-28q40 4 78 17.5t67 37.5v-369zM909 28h-311q10 32 41 55t94 55q92 46 128.5 78t36.5 88q0 33 -13 56.5t-35 38t-49.5 21t-58.5 6.5q-170 0 -170 -149h34q0 57 33.5 89t102.5 32
q50 0 86 -23t36 -71q0 -45 -27 -69t-97 -60q-13 -7 -28 -15q-44 -23 -67 -36.5t-40 -30t-27 -39t-14 -54.5h345v28z" />
    <glyph glyph-name="threequarters" unicode="&#xbe;" horiz-adv-x="972" 
d="M554 142v-33h245v-109h34v109h89v28h-89v287h-34zM799 137h-211l211 247v-247zM273 -16h40l457 736h-40zM207 500q32 0 58.5 -2.5t51.5 -11.5t40.5 -29t15.5 -53q0 -27 -12 -47t-32 -32t-44 -17.5t-49 -5.5q-66 0 -107 29.5t-41 96.5h-34q0 -81 47.5 -117.5t127.5 -36.5
q35 0 66 6t56.5 20.5t40.5 40t15 62.5q0 52 -32 82t-81 30v2q46 5 73.5 26.5t27.5 65.5q0 31 -13.5 53t-36 34.5t-48.5 18t-52 5.5q-84 0 -130 -33t-48 -109h34q0 59 38.5 86.5t99.5 27.5q22 0 43.5 -4t39 -13t28.5 -25.5t11 -40.5q0 -28 -15 -45t-39 -24.5t-47 -9.5t-53 -2
v-28z" />
    <glyph glyph-name="questiondown" unicode="&#xbf;" horiz-adv-x="630" 
d="M304 328v-33q0 -26 -5 -43t-16.5 -30.5t-29 -26.5t-54.5 -37q-73 -47 -101.5 -86t-28.5 -100q0 -94 69 -142t184 -48q120 0 188.5 58.5t69.5 177.5h-46q-1 -100 -56.5 -148t-161.5 -48q-39 0 -74.5 9t-64.5 27.5t-45.5 48t-16.5 68.5q0 25 5.5 43.5t18 35t34 33.5
t56.5 41q42 28 62 43.5t33.5 33t19.5 41t6 59.5v23h-46zM353 512h-52v-100h52v100z" />
    <glyph glyph-name="Agrave" unicode="&#xc0;" horiz-adv-x="686" 
d="M363 755h45l-144 142h-58zM-11 0h52l105 230h394l105 -230h52l-328 714h-52zM343 662l179 -392h-358z" />
    <glyph glyph-name="Aacute" unicode="&#xc1;" horiz-adv-x="686" 
d="M422 897l-144 -142h45l157 142h-58zM-11 0h52l105 230h394l105 -230h52l-328 714h-52zM343 662l179 -392h-358z" />
    <glyph glyph-name="Acircumflex" unicode="&#xc2;" horiz-adv-x="686" 
d="M526 755l-155 142h-56l-155 -142h53l130 114l130 -114h53zM-11 0h52l105 230h394l105 -230h52l-328 714h-52zM343 662l179 -392h-358z" />
    <glyph glyph-name="Atilde" unicode="&#xc3;" horiz-adv-x="686" 
d="M203 778q2 22 18 38t39 16q19 0 36 -6.5t44 -20.5v0v0q27 -13 47.5 -20t43.5 -7q35 0 59 27q22 25 27 61h-34q-4 -22 -16 -38t-39 -16q-23 0 -68 22l-10 5q-25 13 -45 20t-42 7q-38 0 -64 -26.5t-30 -61.5h34zM-11 0h52l105 230h394l105 -230h52l-328 714h-52zM343 662
l179 -392h-358z" />
    <glyph glyph-name="Adieresis" unicode="&#xc4;" horiz-adv-x="686" 
d="M214 760h46v106h-46v-106zM426 760h46v106h-46v-106zM-11 0h52l105 230h394l105 -230h52l-328 714h-52zM343 662l179 -392h-358z" />
    <glyph glyph-name="Aring" unicode="&#xc5;" horiz-adv-x="686" 
d="M233 840q0 -46 32 -78t78 -32t78 32t32 78t-32 78t-78 32t-78 -32t-32 -78zM267 840q0 32 22 54t54 22t54 -22t22 -54t-22 -54t-54 -22t-54 22t-22 54zM-11 0h52l105 230h394l105 -230h52l-328 714h-52zM343 662l179 -392h-358z" />
    <glyph glyph-name="AE" unicode="&#xc6;" horiz-adv-x="1056" 
d="M-33 0h55l166 257h326v-257h524v40h-478v310h451v40h-451v284h472v40h-601zM457 674h57v-377h-300z" />
    <glyph glyph-name="Ccedilla" unicode="&#xc7;" horiz-adv-x="796" 
d="M714 271q-20 -115 -102.5 -181t-202.5 -66q-79 0 -142 26t-106 72.5t-64.5 106.5t-21.5 128t23.5 128t67.5 106.5t106.5 72.5t136.5 26q107 0 188 -51t105 -149h46q-26 117 -116.5 178.5t-222.5 61.5q-94 0 -166.5 -32.5t-119.5 -87t-70.5 -120.5t-23.5 -133
q0 -83 26 -150.5t74 -116t113 -75t141 -30.5l-51 -61l17 -15q13 6 26.5 9t32.5 3q24 0 42.5 -8.5t18.5 -29.5q0 -16 -9.5 -25.5t-23 -13.5t-25.5 -5t-24 -1q-18 0 -44.5 5.5t-45.5 12.5l-10 -28q25 -7 56 -12.5t55 -5.5q44 0 77.5 18.5t33.5 57.5q0 30 -26 46.5t-59 16.5
q-15 0 -44 -6l-2 2l36 39q76 1 138 26t106.5 66.5t70 92t31.5 102.5h-46z" />
    <glyph glyph-name="Egrave" unicode="&#xc8;" 
d="M344 755h45l-144 142h-58zM60 0h570v40h-524v310h497v40h-497v284h518v40h-564v-714z" />
    <glyph glyph-name="Eacute" unicode="&#xc9;" 
d="M403 897l-144 -142h45l157 142h-58zM60 0h570v40h-524v310h497v40h-497v284h518v40h-564v-714z" />
    <glyph glyph-name="Ecircumflex" unicode="&#xca;" 
d="M507 755l-155 142h-56l-155 -142h53l130 114l130 -114h53zM60 0h570v40h-524v310h497v40h-497v284h518v40h-564v-714z" />
    <glyph glyph-name="Edieresis" unicode="&#xcb;" 
d="M195 760h46v106h-46v-106zM407 760h46v106h-46v-106zM60 0h570v40h-524v310h497v40h-497v284h518v40h-564v-714z" />
    <glyph glyph-name="Igrave" unicode="&#xcc;" horiz-adv-x="166" 
d="M103 755h45l-144 142h-58zM60 0h46v714h-46v-714z" />
    <glyph glyph-name="Iacute" unicode="&#xcd;" horiz-adv-x="166" 
d="M162 897l-144 -142h45l157 142h-58zM60 0h46v714h-46v-714z" />
    <glyph glyph-name="Icircumflex" unicode="&#xce;" horiz-adv-x="166" 
d="M266 755l-155 142h-56l-155 -142h53l130 114l130 -114h53zM60 0h46v714h-46v-714z" />
    <glyph glyph-name="Idieresis" unicode="&#xcf;" horiz-adv-x="166" 
d="M-46 760h46v106h-46v-106zM166 760h46v106h-46v-106zM60 0h46v714h-46v-714z" />
    <glyph glyph-name="Eth" unicode="&#xd0;" horiz-adv-x="759" 
d="M60 0h326q161 0 244.5 97t83.5 260q0 100 -25 169.5t-69.5 110.5t-101.5 59t-124 18h-334v-324h-60v-40h60v-350zM106 674h278q65 0 117 -18t89.5 -56.5t57.5 -99t20 -143.5q0 -158 -74 -237.5t-199 -79.5h-289v310h266v40h-266v284z" />
    <glyph glyph-name="Ntilde" unicode="&#xd1;" horiz-adv-x="759" 
d="M240 778q2 22 18 38t39 16q19 0 36 -6.5t44 -20.5v0v0q27 -13 47.5 -20t43.5 -7q35 0 59 27q22 25 27 61h-34q-4 -22 -16 -38t-39 -16q-23 0 -68 22l-10 5q-25 13 -45 20t-42 7q-38 0 -64 -26.5t-30 -61.5h34zM60 0h46v650h2l533 -650h58v714h-46v-650h-2l-533 650h-58
v-714z" />
    <glyph glyph-name="Ograve" unicode="&#xd2;" horiz-adv-x="816" 
d="M428 755h45l-144 142h-58zM75 357q0 65 22 125t65 107t105.5 74t140.5 27t140.5 -27t105.5 -74t65 -107t22 -125t-22 -124.5t-65 -107t-105.5 -74.5t-140.5 -27t-140.5 27t-105.5 74t-65 107t-22 125zM29 357q0 -58 20 -122t64 -121t118.5 -93.5t176.5 -36.5
q103 0 177 36t118 93.5t64 121.5t20 122t-20 122t-64 121.5t-118 93.5t-177 36q-102 0 -176 -36t-118.5 -93.5t-64.5 -121.5t-20 -122z" />
    <glyph glyph-name="Oacute" unicode="&#xd3;" horiz-adv-x="816" 
d="M487 897l-144 -142h45l157 142h-58zM75 357q0 65 22 125t65 107t105.5 74t140.5 27t140.5 -27t105.5 -74t65 -107t22 -125t-22 -124.5t-65 -107t-105.5 -74.5t-140.5 -27t-140.5 27t-105.5 74t-65 107t-22 125zM29 357q0 -58 20 -122t64 -121t118.5 -93.5t176.5 -36.5
q103 0 177 36t118 93.5t64 121.5t20 122t-20 122t-64 121.5t-118 93.5t-177 36q-102 0 -176 -36t-118.5 -93.5t-64.5 -121.5t-20 -122z" />
    <glyph glyph-name="Ocircumflex" unicode="&#xd4;" horiz-adv-x="816" 
d="M591 755l-155 142h-56l-155 -142h53l130 114l130 -114h53zM75 357q0 65 22 125t65 107t105.5 74t140.5 27t140.5 -27t105.5 -74t65 -107t22 -125t-22 -124.5t-65 -107t-105.5 -74.5t-140.5 -27t-140.5 27t-105.5 74t-65 107t-22 125zM29 357q0 -58 20 -122t64 -121
t118.5 -93.5t176.5 -36.5q103 0 177 36t118 93.5t64 121.5t20 122t-20 122t-64 121.5t-118 93.5t-177 36q-102 0 -176 -36t-118.5 -93.5t-64.5 -121.5t-20 -122z" />
    <glyph glyph-name="Otilde" unicode="&#xd5;" horiz-adv-x="816" 
d="M268 778q2 22 18 38t39 16q19 0 36 -6.5t44 -20.5v0v0q27 -13 47.5 -20t43.5 -7q35 0 59 27q22 25 27 61h-34q-4 -22 -16 -38t-39 -16q-23 0 -68 22l-10 5q-25 13 -45 20t-42 7q-38 0 -64 -26.5t-30 -61.5h34zM75 357q0 65 22 125t65 107t105.5 74t140.5 27t140.5 -27
t105.5 -74t65 -107t22 -125t-22 -124.5t-65 -107t-105.5 -74.5t-140.5 -27t-140.5 27t-105.5 74t-65 107t-22 125zM29 357q0 -58 20 -122t64 -121t118.5 -93.5t176.5 -36.5q103 0 177 36t118 93.5t64 121.5t20 122t-20 122t-64 121.5t-118 93.5t-177 36q-102 0 -176 -36
t-118.5 -93.5t-64.5 -121.5t-20 -122z" />
    <glyph glyph-name="Odieresis" unicode="&#xd6;" horiz-adv-x="816" 
d="M279 760h46v106h-46v-106zM491 760h46v106h-46v-106zM75 357q0 65 22 125t65 107t105.5 74t140.5 27t140.5 -27t105.5 -74t65 -107t22 -125t-22 -124.5t-65 -107t-105.5 -74.5t-140.5 -27t-140.5 27t-105.5 74t-65 107t-22 125zM29 357q0 -58 20 -122t64 -121
t118.5 -93.5t176.5 -36.5q103 0 177 36t118 93.5t64 121.5t20 122t-20 122t-64 121.5t-118 93.5t-177 36q-102 0 -176 -36t-118.5 -93.5t-64.5 -121.5t-20 -122z" />
    <glyph glyph-name="multiply" unicode="&#xd7;" horiz-adv-x="600" 
d="M79 59l26 -27l195 195l194 -195l27 27l-195 194l195 195l-27 27l-194 -196l-195 196l-26 -27l195 -195z" />
    <glyph glyph-name="Oslash" unicode="&#xd8;" horiz-adv-x="816" 
d="M33 6l22 -22l93 92q47 -43 112 -67.5t148 -24.5q103 0 177 36t118 93.5t64 121.5t20 122q0 63 -24 133.5t-74 124.5l94 93l-22 22l-93 -93q-47 44 -111.5 68.5t-148.5 24.5q-102 0 -176 -36t-118.5 -93.5t-64.5 -121.5t-20 -122q0 -63 24 -132.5t73 -125.5zM158 131
q-40 44 -61.5 103t-21.5 123q0 65 22 125t65 107t105.5 74t140.5 27q70 0 127.5 -22t100.5 -62zM658 584q41 -46 62 -105t21 -122q0 -65 -22 -124.5t-65 -107t-105.5 -74.5t-140.5 -27q-69 0 -127 22t-101 62z" />
    <glyph glyph-name="Ugrave" unicode="&#xd9;" horiz-adv-x="740" 
d="M390 755h45l-144 142h-58zM54 264q0 -280 316 -280t316 280v450h-46v-448q0 -120 -63.5 -181t-206.5 -61t-206.5 61t-63.5 181v448h-46v-450z" />
    <glyph glyph-name="Uacute" unicode="&#xda;" horiz-adv-x="740" 
d="M449 897l-144 -142h45l157 142h-58zM54 264q0 -280 316 -280t316 280v450h-46v-448q0 -120 -63.5 -181t-206.5 -61t-206.5 61t-63.5 181v448h-46v-450z" />
    <glyph glyph-name="Ucircumflex" unicode="&#xdb;" horiz-adv-x="740" 
d="M553 755l-155 142h-56l-155 -142h53l130 114l130 -114h53zM54 264q0 -280 316 -280t316 280v450h-46v-448q0 -120 -63.5 -181t-206.5 -61t-206.5 61t-63.5 181v448h-46v-450z" />
    <glyph glyph-name="Udieresis" unicode="&#xdc;" horiz-adv-x="740" 
d="M241 760h46v106h-46v-106zM453 760h46v106h-46v-106zM54 264q0 -280 316 -280t316 280v450h-46v-448q0 -120 -63.5 -181t-206.5 -61t-206.5 61t-63.5 181v448h-46v-450z" />
    <glyph glyph-name="Yacute" unicode="&#xdd;" horiz-adv-x="668" 
d="M413 897l-144 -142h45l157 142h-58zM311 300v-300h46v300l331 414h-58l-296 -371l-290 371h-64z" />
    <glyph glyph-name="Thorn" unicode="&#xde;" horiz-adv-x="667" 
d="M60 0h46v164h319q113 0 168.5 54t55.5 148q0 58 -18.5 97.5t-50.5 61.5t-69 30.5t-79 8.5h-326v150h-46v-714zM106 524h307q35 0 63.5 -3.5t58 -18t49 -48.5t19.5 -90q0 -45 -15 -76.5t-40.5 -49.5t-57 -26t-66.5 -8h-318v320z" />
    <glyph glyph-name="germandbls" unicode="&#xdf;" horiz-adv-x="593" 
d="M102 0v523q0 79 45 122t146 43q58 0 97 -13.5t59.5 -34.5t28 -43.5t7.5 -44.5q0 -69 -51 -103t-143 -34h-30v-40h37q108 0 165.5 -38t57.5 -123q0 -51 -15 -86.5t-41.5 -57t-60.5 -31t-73 -9.5q-27 0 -49 3t-33 7v-40q23 -10 79 -10q116 0 177.5 60.5t61.5 154.5
q0 83 -45.5 135t-132.5 58v2q40 6 67.5 21.5t44 37t23.5 45.5t7 48q0 47 -18.5 81t-51 55t-76.5 30.5t-97 9.5q-110 0 -171 -50t-61 -156v-522h46z" />
    <glyph glyph-name="agrave" unicode="&#xe0;" horiz-adv-x="593" 
d="M317 593h45l-144 142h-58zM476 192q0 -43 -21.5 -75.5t-56.5 -53t-76.5 -30t-82.5 -9.5q-28 0 -55.5 4t-53.5 16t-42 36t-16 60q0 54 38 78t109 29l173 12q61 4 82 27h2v-94zM95 354q11 72 52 103t139 31q107 0 148.5 -29.5t41.5 -86.5q0 -44 -16.5 -57t-61.5 -16
l-179 -12q-42 -2 -76 -11t-60.5 -26t-41.5 -44.5t-15 -65.5q0 -54 24.5 -87t60 -47.5t65.5 -18t60 -3.5q31 0 62.5 4t66 16.5t65 36.5t50.5 61h2q0 -62 10 -87t53 -25q34 0 56 8v40q-24 -8 -45 -8q-23 0 -28.5 13.5t-5.5 47.5v287q0 83 -58.5 116.5t-176.5 33.5
q-117 0 -171 -39t-67 -135h46z" />
    <glyph glyph-name="aacute" unicode="&#xe1;" horiz-adv-x="593" 
d="M376 735l-144 -142h45l157 142h-58zM476 192q0 -43 -21.5 -75.5t-56.5 -53t-76.5 -30t-82.5 -9.5q-28 0 -55.5 4t-53.5 16t-42 36t-16 60q0 54 38 78t109 29l173 12q61 4 82 27h2v-94zM95 354q11 72 52 103t139 31q107 0 148.5 -29.5t41.5 -86.5q0 -44 -16.5 -57
t-61.5 -16l-179 -12q-42 -2 -76 -11t-60.5 -26t-41.5 -44.5t-15 -65.5q0 -54 24.5 -87t60 -47.5t65.5 -18t60 -3.5q31 0 62.5 4t66 16.5t65 36.5t50.5 61h2q0 -62 10 -87t53 -25q34 0 56 8v40q-24 -8 -45 -8q-23 0 -28.5 13.5t-5.5 47.5v287q0 83 -58.5 116.5t-176.5 33.5
q-117 0 -171 -39t-67 -135h46z" />
    <glyph glyph-name="acircumflex" unicode="&#xe2;" horiz-adv-x="593" 
d="M480 593l-155 142h-56l-155 -142h53l130 114l130 -114h53zM476 192q0 -43 -21.5 -75.5t-56.5 -53t-76.5 -30t-82.5 -9.5q-28 0 -55.5 4t-53.5 16t-42 36t-16 60q0 54 38 78t109 29l173 12q61 4 82 27h2v-94zM95 354q11 72 52 103t139 31q107 0 148.5 -29.5t41.5 -86.5
q0 -44 -16.5 -57t-61.5 -16l-179 -12q-42 -2 -76 -11t-60.5 -26t-41.5 -44.5t-15 -65.5q0 -54 24.5 -87t60 -47.5t65.5 -18t60 -3.5q31 0 62.5 4t66 16.5t65 36.5t50.5 61h2q0 -62 10 -87t53 -25q34 0 56 8v40q-24 -8 -45 -8q-23 0 -28.5 13.5t-5.5 47.5v287
q0 83 -58.5 116.5t-176.5 33.5q-117 0 -171 -39t-67 -135h46z" />
    <glyph glyph-name="atilde" unicode="&#xe3;" horiz-adv-x="593" 
d="M157 616q2 22 18 38t39 16q19 0 36 -6.5t44 -20.5v0v0q27 -13 47.5 -20t43.5 -7q35 0 59 27q22 25 27 61h-34q-4 -22 -16 -38t-39 -16q-23 0 -68 22l-10 5q-25 13 -45 20t-42 7q-38 0 -64 -26.5t-30 -61.5h34zM476 192q0 -43 -21.5 -75.5t-56.5 -53t-76.5 -30t-82.5 -9.5
q-28 0 -55.5 4t-53.5 16t-42 36t-16 60q0 54 38 78t109 29l173 12q61 4 82 27h2v-94zM95 354q11 72 52 103t139 31q107 0 148.5 -29.5t41.5 -86.5q0 -44 -16.5 -57t-61.5 -16l-179 -12q-42 -2 -76 -11t-60.5 -26t-41.5 -44.5t-15 -65.5q0 -54 24.5 -87t60 -47.5t65.5 -18
t60 -3.5q31 0 62.5 4t66 16.5t65 36.5t50.5 61h2q0 -62 10 -87t53 -25q34 0 56 8v40q-24 -8 -45 -8q-23 0 -28.5 13.5t-5.5 47.5v287q0 83 -58.5 116.5t-176.5 33.5q-117 0 -171 -39t-67 -135h46z" />
    <glyph glyph-name="adieresis" unicode="&#xe4;" horiz-adv-x="593" 
d="M168 598h46v106h-46v-106zM380 598h46v106h-46v-106zM476 192q0 -43 -21.5 -75.5t-56.5 -53t-76.5 -30t-82.5 -9.5q-28 0 -55.5 4t-53.5 16t-42 36t-16 60q0 54 38 78t109 29l173 12q61 4 82 27h2v-94zM95 354q11 72 52 103t139 31q107 0 148.5 -29.5t41.5 -86.5
q0 -44 -16.5 -57t-61.5 -16l-179 -12q-42 -2 -76 -11t-60.5 -26t-41.5 -44.5t-15 -65.5q0 -54 24.5 -87t60 -47.5t65.5 -18t60 -3.5q31 0 62.5 4t66 16.5t65 36.5t50.5 61h2q0 -62 10 -87t53 -25q34 0 56 8v40q-24 -8 -45 -8q-23 0 -28.5 13.5t-5.5 47.5v287
q0 83 -58.5 116.5t-176.5 33.5q-117 0 -171 -39t-67 -135h46z" />
    <glyph glyph-name="aring" unicode="&#xe5;" horiz-adv-x="593" 
d="M187 678q0 -46 32 -78t78 -32t78 32t32 78t-32 78t-78 32t-78 -32t-32 -78zM221 678q0 32 22 54t54 22t54 -22t22 -54t-22 -54t-54 -22t-54 22t-22 54zM476 192q0 -43 -21.5 -75.5t-56.5 -53t-76.5 -30t-82.5 -9.5q-28 0 -55.5 4t-53.5 16t-42 36t-16 60q0 54 38 78
t109 29l173 12q61 4 82 27h2v-94zM95 354q11 72 52 103t139 31q107 0 148.5 -29.5t41.5 -86.5q0 -44 -16.5 -57t-61.5 -16l-179 -12q-42 -2 -76 -11t-60.5 -26t-41.5 -44.5t-15 -65.5q0 -54 24.5 -87t60 -47.5t65.5 -18t60 -3.5q31 0 62.5 4t66 16.5t65 36.5t50.5 61h2
q0 -62 10 -87t53 -25q34 0 56 8v40q-24 -8 -45 -8q-23 0 -28.5 13.5t-5.5 47.5v287q0 83 -58.5 116.5t-176.5 33.5q-117 0 -171 -39t-67 -135h46z" />
    <glyph glyph-name="ae" unicode="&#xe6;" horiz-adv-x="1055" 
d="M1038 246q-1 126 -76 204t-206 78q-87 0 -150 -36.5t-88 -99.5h-2q-5 41 -24.5 68t-50 42t-68.5 20.5t-86 5.5q-117 0 -171 -39t-67 -135h46q11 72 52 103t139 31q107 0 148.5 -29.5t41.5 -86.5q0 -44 -16.5 -57t-61.5 -16l-179 -12q-42 -2 -76 -11t-60.5 -26
t-41.5 -44.5t-15 -65.5q0 -54 24.5 -87t60 -47.5t65.5 -18t60 -3.5q104 0 173 43t89 114h2q16 -44 43 -74.5t61.5 -48.5t72 -26t78.5 -8q104 0 170.5 45.5t98.5 140.5h-46q-10 -26 -22.5 -48t-36.5 -45t-63.5 -38t-95.5 -15q-113 0 -177.5 61.5t-66.5 160.5h522zM516 286
q15 93 76.5 147.5t158.5 54.5q94 0 157.5 -50.5t77.5 -151.5h-470zM476 192q0 -43 -21.5 -75.5t-56.5 -53t-76.5 -30t-82.5 -9.5q-28 0 -55.5 4t-53.5 16t-42 36t-16 60q0 54 38 78t109 29l173 12q61 4 82 27h2v-94z" />
    <glyph glyph-name="ccedilla" unicode="&#xe7;" horiz-adv-x="611" 
d="M539 179q-16 -76 -79 -115.5t-145 -39.5q-65 0 -112.5 22.5t-76 57.5t-41.5 74t-13 73q0 47 15.5 89.5t46 76t76.5 52.5t105 19q45 0 84 -12t68 -32t46 -44.5t19 -48.5h46q-2 33 -21.5 64.5t-54 57t-82.5 40.5t-105 15q-59 0 -111.5 -18t-92.5 -53.5t-62.5 -87.5
t-22.5 -118q0 -56 19 -103t54.5 -82.5t84.5 -56t107 -23.5l-51 -62l17 -15q13 6 26.5 9t32.5 3q24 0 42.5 -8.5t18.5 -29.5q0 -16 -9.5 -25.5t-23 -13.5t-25.5 -5t-24 -1q-18 0 -44.5 5.5t-45.5 12.5l-10 -28q25 -7 56 -12.5t55 -5.5q44 0 77.5 18.5t33.5 57.5
q0 30 -26 46.5t-59 16.5q-15 0 -44 -6l-2 2l36 40q101 2 172.5 51t90.5 143h-46z" />
    <glyph glyph-name="egrave" unicode="&#xe8;" horiz-adv-x="611" 
d="M326 593h45l-144 142h-58zM594 246q-1 126 -76 204t-206 78q-77 0 -133 -25t-89.5 -66t-48.5 -87t-15 -90q0 -127 77 -201.5t208 -74.5q104 0 170.5 45.5t98.5 140.5h-46q-10 -26 -22.5 -48t-36.5 -45t-63.5 -38t-95.5 -15q-113 0 -177.5 61.5t-66.5 160.5h522zM72 286
q15 93 76.5 147.5t158.5 54.5q94 0 157.5 -50.5t77.5 -151.5h-470z" />
    <glyph glyph-name="eacute" unicode="&#xe9;" horiz-adv-x="611" 
d="M385 735l-144 -142h45l157 142h-58zM594 246q-1 126 -76 204t-206 78q-77 0 -133 -25t-89.5 -66t-48.5 -87t-15 -90q0 -127 77 -201.5t208 -74.5q104 0 170.5 45.5t98.5 140.5h-46q-10 -26 -22.5 -48t-36.5 -45t-63.5 -38t-95.5 -15q-113 0 -177.5 61.5t-66.5 160.5h522z
M72 286q15 93 76.5 147.5t158.5 54.5q94 0 157.5 -50.5t77.5 -151.5h-470z" />
    <glyph glyph-name="ecircumflex" unicode="&#xea;" horiz-adv-x="611" 
d="M489 593l-155 142h-56l-155 -142h53l130 114l130 -114h53zM594 246q-1 126 -76 204t-206 78q-77 0 -133 -25t-89.5 -66t-48.5 -87t-15 -90q0 -127 77 -201.5t208 -74.5q104 0 170.5 45.5t98.5 140.5h-46q-10 -26 -22.5 -48t-36.5 -45t-63.5 -38t-95.5 -15
q-113 0 -177.5 61.5t-66.5 160.5h522zM72 286q15 93 76.5 147.5t158.5 54.5q94 0 157.5 -50.5t77.5 -151.5h-470z" />
    <glyph glyph-name="edieresis" unicode="&#xeb;" horiz-adv-x="611" 
d="M177 598h46v106h-46v-106zM389 598h46v106h-46v-106zM594 246q-1 126 -76 204t-206 78q-77 0 -133 -25t-89.5 -66t-48.5 -87t-15 -90q0 -127 77 -201.5t208 -74.5q104 0 170.5 45.5t98.5 140.5h-46q-10 -26 -22.5 -48t-36.5 -45t-63.5 -38t-95.5 -15q-113 0 -177.5 61.5
t-66.5 160.5h522zM72 286q15 93 76.5 147.5t158.5 54.5q94 0 157.5 -50.5t77.5 -151.5h-470z" />
    <glyph glyph-name="igrave" unicode="&#xec;" horiz-adv-x="166" 
d="M103 593h45l-144 142h-58zM60 0h46v512h-46v-512z" />
    <glyph glyph-name="iacute" unicode="&#xed;" horiz-adv-x="166" 
d="M162 735l-144 -142h45l157 142h-58zM60 0h46v512h-46v-512z" />
    <glyph glyph-name="icircumflex" unicode="&#xee;" horiz-adv-x="166" 
d="M266 593l-155 142h-56l-155 -142h53l130 114l130 -114h53zM60 0h46v512h-46v-512z" />
    <glyph glyph-name="idieresis" unicode="&#xef;" horiz-adv-x="166" 
d="M-46 598h46v106h-46v-106zM166 598h46v106h-46v-106zM60 0h46v512h-46v-512z" />
    <glyph glyph-name="eth" unicode="&#xf0;" horiz-adv-x="630" 
d="M72 256q0 45 15.5 86.5t46 74.5t77 52t104.5 19q59 0 104.5 -19t76.5 -52t46.5 -74.5t15.5 -86.5t-15.5 -86.5t-46 -74.5t-76.5 -52t-105 -19q-58 0 -104 19t-77 52t-46.5 74.5t-15.5 86.5zM26 256q0 -54 19.5 -103.5t57 -87.5t92 -59.5t120.5 -21.5q135 0 212 78.5
t77 205.5q0 91 -30 170.5t-85.5 142.5t-130.5 106.5t-164 65.5l-27 -31q141 -36 230 -109t149 -203l-2 -2q-43 65 -103 92.5t-137 27.5q-63 0 -114.5 -21.5t-88 -59.5t-56 -87.5t-19.5 -103.5zM463 753l-272 -136l27 -20l268 133z" />
    <glyph glyph-name="ntilde" unicode="&#xf1;" horiz-adv-x="611" 
d="M166 616q2 22 18 38t39 16q19 0 36 -6.5t44 -20.5v0v0q27 -13 47.5 -20t43.5 -7q35 0 59 27q22 25 27 61h-34q-4 -22 -16 -38t-39 -16q-23 0 -68 22l-10 5q-25 13 -45 20t-42 7q-38 0 -64 -26.5t-30 -61.5h34zM56 0h46v299q0 36 13 70t40 61t68.5 42.5t95.5 15.5
q55 0 92.5 -12t58.5 -35t30 -54.5t9 -72.5v-314h46v316q0 37 -5 68.5t-27 65t-71.5 56t-131.5 22.5q-81 0 -135 -33t-81 -85h-2v102h-46v-512z" />
    <glyph glyph-name="ograve" unicode="&#xf2;" horiz-adv-x="630" 
d="M335 593h45l-144 142h-58zM72 256q0 45 15.5 86.5t46 74.5t77 52t104.5 19q59 0 104.5 -19t76.5 -52t46.5 -74.5t15.5 -86.5t-15.5 -86.5t-46 -74.5t-76.5 -52t-105 -19q-58 0 -104 19t-77 52t-46.5 74.5t-15.5 86.5zM26 256q0 -54 19.5 -103.5t57 -87.5t92 -59.5
t120.5 -21.5q67 0 121 21.5t91.5 59.5t57 87.5t19.5 103.5t-19.5 103.5t-57 87.5t-91.5 59.5t-121 21.5q-66 0 -120.5 -21.5t-92 -59.5t-57 -87.5t-19.5 -103.5z" />
    <glyph glyph-name="oacute" unicode="&#xf3;" horiz-adv-x="630" 
d="M394 735l-144 -142h45l157 142h-58zM72 256q0 45 15.5 86.5t46 74.5t77 52t104.5 19q59 0 104.5 -19t76.5 -52t46.5 -74.5t15.5 -86.5t-15.5 -86.5t-46 -74.5t-76.5 -52t-105 -19q-58 0 -104 19t-77 52t-46.5 74.5t-15.5 86.5zM26 256q0 -54 19.5 -103.5t57 -87.5
t92 -59.5t120.5 -21.5q67 0 121 21.5t91.5 59.5t57 87.5t19.5 103.5t-19.5 103.5t-57 87.5t-91.5 59.5t-121 21.5q-66 0 -120.5 -21.5t-92 -59.5t-57 -87.5t-19.5 -103.5z" />
    <glyph glyph-name="ocircumflex" unicode="&#xf4;" horiz-adv-x="630" 
d="M498 593l-155 142h-56l-155 -142h53l130 114l130 -114h53zM72 256q0 45 15.5 86.5t46 74.5t77 52t104.5 19q59 0 104.5 -19t76.5 -52t46.5 -74.5t15.5 -86.5t-15.5 -86.5t-46 -74.5t-76.5 -52t-105 -19q-58 0 -104 19t-77 52t-46.5 74.5t-15.5 86.5zM26 256
q0 -54 19.5 -103.5t57 -87.5t92 -59.5t120.5 -21.5q67 0 121 21.5t91.5 59.5t57 87.5t19.5 103.5t-19.5 103.5t-57 87.5t-91.5 59.5t-121 21.5q-66 0 -120.5 -21.5t-92 -59.5t-57 -87.5t-19.5 -103.5z" />
    <glyph glyph-name="otilde" unicode="&#xf5;" horiz-adv-x="630" 
d="M175 616q2 22 18 38t39 16q19 0 36 -6.5t44 -20.5v0v0q27 -13 47.5 -20t43.5 -7q35 0 59 27q22 25 27 61h-34q-4 -22 -16 -38t-39 -16q-23 0 -68 22l-10 5q-25 13 -45 20t-42 7q-38 0 -64 -26.5t-30 -61.5h34zM72 256q0 45 15.5 86.5t46 74.5t77 52t104.5 19
q59 0 104.5 -19t76.5 -52t46.5 -74.5t15.5 -86.5t-15.5 -86.5t-46 -74.5t-76.5 -52t-105 -19q-58 0 -104 19t-77 52t-46.5 74.5t-15.5 86.5zM26 256q0 -54 19.5 -103.5t57 -87.5t92 -59.5t120.5 -21.5q67 0 121 21.5t91.5 59.5t57 87.5t19.5 103.5t-19.5 103.5t-57 87.5
t-91.5 59.5t-121 21.5q-66 0 -120.5 -21.5t-92 -59.5t-57 -87.5t-19.5 -103.5z" />
    <glyph glyph-name="odieresis" unicode="&#xf6;" horiz-adv-x="630" 
d="M186 598h46v106h-46v-106zM398 598h46v106h-46v-106zM72 256q0 45 15.5 86.5t46 74.5t77 52t104.5 19q59 0 104.5 -19t76.5 -52t46.5 -74.5t15.5 -86.5t-15.5 -86.5t-46 -74.5t-76.5 -52t-105 -19q-58 0 -104 19t-77 52t-46.5 74.5t-15.5 86.5zM26 256q0 -54 19.5 -103.5
t57 -87.5t92 -59.5t120.5 -21.5q67 0 121 21.5t91.5 59.5t57 87.5t19.5 103.5t-19.5 103.5t-57 87.5t-91.5 59.5t-121 21.5q-66 0 -120.5 -21.5t-92 -59.5t-57 -87.5t-19.5 -103.5z" />
    <glyph glyph-name="divide" unicode="&#xf7;" horiz-adv-x="600" 
d="M47 233h506v40h-506v-40zM247 453q0 -22 15.5 -37.5t37.5 -15.5t37.5 15.5t15.5 37.5t-15.5 37.5t-37.5 15.5t-37.5 -15.5t-15.5 -37.5zM247 53q0 -22 15.5 -37.5t37.5 -15.5t37.5 15.5t15.5 37.5t-15.5 37.5t-37.5 15.5t-37.5 -15.5t-15.5 -37.5z" />
    <glyph glyph-name="oslash" unicode="&#xf8;" horiz-adv-x="630" 
d="M131 98q-29 31 -44 72t-15 86t15.5 86.5t46 74.5t77 52t104.5 19q101 0 165 -56zM499 414q29 -32 44 -73t15 -85q0 -45 -15.5 -86.5t-46 -74.5t-76.5 -52t-105 -19q-99 0 -165 56zM29 0l18 -19l72 69q37 -31 86.5 -48.5t109.5 -17.5q67 0 121 21.5t91.5 59.5t57 87.5
t19.5 103.5q0 53 -19 102t-55 86l71 68l-18 19l-72 -69q-79 66 -196 66q-66 0 -120.5 -21.5t-92 -59.5t-57 -87.5t-19.5 -103.5t19 -102.5t55 -85.5z" />
    <glyph glyph-name="ugrave" unicode="&#xf9;" horiz-adv-x="611" 
d="M326 593h45l-144 142h-58zM555 512h-46v-299q0 -36 -13 -70t-40 -61t-68 -42.5t-96 -15.5t-92.5 12.5t-58.5 35t-30 54t-9 72.5v314h-46v-316q0 -36 5 -68t27 -65.5t71.5 -56t131.5 -22.5t135.5 33t80.5 85h2v-102h46v512z" />
    <glyph glyph-name="uacute" unicode="&#xfa;" horiz-adv-x="611" 
d="M385 735l-144 -142h45l157 142h-58zM555 512h-46v-299q0 -36 -13 -70t-40 -61t-68 -42.5t-96 -15.5t-92.5 12.5t-58.5 35t-30 54t-9 72.5v314h-46v-316q0 -36 5 -68t27 -65.5t71.5 -56t131.5 -22.5t135.5 33t80.5 85h2v-102h46v512z" />
    <glyph glyph-name="ucircumflex" unicode="&#xfb;" horiz-adv-x="611" 
d="M489 593l-155 142h-56l-155 -142h53l130 114l130 -114h53zM555 512h-46v-299q0 -36 -13 -70t-40 -61t-68 -42.5t-96 -15.5t-92.5 12.5t-58.5 35t-30 54t-9 72.5v314h-46v-316q0 -36 5 -68t27 -65.5t71.5 -56t131.5 -22.5t135.5 33t80.5 85h2v-102h46v512z" />
    <glyph glyph-name="udieresis" unicode="&#xfc;" horiz-adv-x="611" 
d="M177 598h46v106h-46v-106zM389 598h46v106h-46v-106zM555 512h-46v-299q0 -36 -13 -70t-40 -61t-68 -42.5t-96 -15.5t-92.5 12.5t-58.5 35t-30 54t-9 72.5v314h-46v-316q0 -36 5 -68t27 -65.5t71.5 -56t131.5 -22.5t135.5 33t80.5 85h2v-102h46v512z" />
    <glyph glyph-name="yacute" unicode="&#xfd;" horiz-adv-x="519" 
d="M339 735l-144 -142h45l157 142h-58zM246 0l-26 -52q-16 -32 -26.5 -49t-21.5 -26.5t-25 -13t-38 -3.5h-55v-40h64q55 0 82 23t50 71l282 602h-52l-211 -461l-230 461h-52z" />
    <glyph glyph-name="thorn" unicode="&#xfe;" horiz-adv-x="630" 
d="M56 -202h46v311h2q27 -51 84 -88t143 -37q58 0 108 19.5t87 55.5t57.5 86t20.5 110q0 55 -17.5 104.5t-52.5 87.5t-86 59.5t-117 21.5q-91 0 -148.5 -37.5t-78.5 -90.5h-2v314h-46v-916zM336 488q98 0 160 -63t62 -171q0 -57 -18.5 -100.5t-50.5 -72t-73 -43t-86 -14.5
q-42 0 -82.5 12.5t-75 40.5t-55.5 74t-21 110q0 38 11.5 77t38.5 73t74.5 55.5t115.5 21.5z" />
    <glyph glyph-name="ydieresis" unicode="&#xff;" horiz-adv-x="519" 
d="M131 598h46v106h-46v-106zM343 598h46v106h-46v-106zM246 0l-26 -52q-16 -32 -26.5 -49t-21.5 -26.5t-25 -13t-38 -3.5h-55v-40h64q55 0 82 23t50 71l282 602h-52l-211 -461l-230 461h-52z" />
    <glyph glyph-name="OE" unicode="&#x152;" horiz-adv-x="1167" 
d="M632 140q0 -14 -16 -33.5t-46 -38.5t-73.5 -31.5t-96.5 -12.5q-85 0 -147 27.5t-100 75t-55.5 107t-17.5 125.5q0 71 21 132t62 105.5t101 69t136 24.5q50 0 93 -11t74 -28.5t48 -37t17 -35.5v-438zM678 350h444v40h-444v284h465v40h-511v-68q-44 45 -104.5 64.5
t-131.5 19.5q-76 0 -142.5 -25.5t-115.5 -73.5t-76.5 -117.5t-27.5 -154.5q0 -87 25.5 -157t73.5 -118.5t115 -74t148 -25.5q71 0 131.5 22t104.5 70v-76h517v40h-471v310z" />
    <glyph glyph-name="oe" unicode="&#x153;" horiz-adv-x="1074" 
d="M561 286q0 38 16.5 74.5t46 65.5t70.5 45.5t88 16.5q97 0 152.5 -51.5t67.5 -150.5h-441zM996 165q-20 -71 -75 -106t-139 -35q-103 0 -162 60t-59 162h487q-4 130 -71 206t-195 76q-79 0 -141.5 -39t-97.5 -120h-2q-29 78 -92.5 118.5t-151.5 40.5q-59 0 -109 -19.5
t-86.5 -56.5t-56 -87t-19.5 -109q0 -123 72.5 -197.5t194.5 -74.5q91 0 153 39t92 119h2q19 -76 87.5 -117t154.5 -41q100 0 171 48.5t89 132.5h-46zM521 256q0 -106 -60 -169t-164 -63q-106 0 -165.5 63.5t-59.5 168.5q0 106 60.5 169t164.5 63q106 0 165 -62.5t59 -169.5z
" />
    <glyph glyph-name="Scaron" unicode="&#x160;" horiz-adv-x="667" 
d="M464 897l-130 -114l-130 114h-53l155 -142h56l155 142h-53zM28 236q0 -58 18 -104t57 -79.5t101.5 -51t147.5 -17.5q80 0 136 17t89 46t47.5 64.5t14.5 74.5q0 82 -54 124t-167 64l-147 29q-99 20 -134 51t-35 90q0 32 12 58.5t39 46t72 30.5t108 11q67 0 113.5 -15.5
t73 -41t39 -56.5t14.5 -65h46q-4 111 -81.5 164.5t-217.5 53.5q-129 0 -199.5 -51t-70.5 -134q0 -80 48.5 -121t167.5 -66l133 -28q57 -12 93.5 -25t57 -30t29 -39t8.5 -53q0 -33 -13 -61.5t-41.5 -50.5t-74.5 -34.5t-110 -12.5q-140 0 -206.5 54.5t-67.5 157.5h-46z" />
    <glyph glyph-name="scaron" unicode="&#x161;" horiz-adv-x="537" 
d="M399 735l-130 -114l-130 114h-53l155 -142h56l155 142h-53zM496 362q-2 34 -14 62.5t-38 52t-72 37.5t-114 14q-62 0 -104.5 -13.5t-66.5 -35.5t-34 -47t-10 -49q0 -32 13 -56t34 -38.5t45.5 -23t51.5 -11.5l180 -24q48 -6 75.5 -28.5t27.5 -64.5q0 -56 -44 -84.5
t-143 -28.5q-70 0 -113.5 13t-64.5 33t-28 41t-10 49h-46q5 -92 71.5 -134t178.5 -42q41 0 81.5 5t78 21t61.5 47t24 80q0 65 -41.5 97t-119.5 43l-163 22q-49 7 -76 27t-27 60q0 45 39.5 73.5t127.5 28.5q98 0 143.5 -30.5t50.5 -95.5h46z" />
    <glyph glyph-name="Ydieresis" unicode="&#x178;" horiz-adv-x="668" 
d="M205 760h46v106h-46v-106zM417 760h46v106h-46v-106zM311 300v-300h46v300l331 414h-58l-296 -371l-290 371h-64z" />
    <glyph glyph-name="florin" unicode="&#x192;" 
d="M148 390h139l-95 -442q-5 -22 -12 -39t-19.5 -30t-35 -21t-55.5 -8q-36 0 -64 4l-7 -40q44 -4 71 -4q51 0 83 13t50 36.5t27.5 52.5t19.5 80l83 398h142l6 34h-141l29 140q12 60 38 88t83 28l15 -1q16 0 20 -1q14 -2 33 -4l8 40q-37 6 -69 6q-78 0 -115.5 -32.5
t-54.5 -110.5l-33 -153h-138z" />
    <glyph glyph-name="circumflex" unicode="&#x2c6;" horiz-adv-x="166" 
d="M266 593l-155 142h-56l-155 -142h53l130 114l130 -114h53z" />
    <glyph glyph-name="tilde" unicode="&#x2dc;" horiz-adv-x="166" 
d="M-57 616q2 22 18 38t39 16q19 0 36 -6.5t44 -20.5v0v0q27 -13 47.5 -20t43.5 -7q35 0 59 27q22 25 27 61h-34q-4 -22 -16 -38t-39 -16q-23 0 -68 22l-10 5q-25 13 -45 20t-42 7q-38 0 -64 -26.5t-30 -61.5h34z" />
    <glyph glyph-name="endash" unicode="&#x2013;" horiz-adv-x="500" 
d="M0 253h500v34h-500v-34z" />
    <glyph glyph-name="emdash" unicode="&#x2014;" horiz-adv-x="1000" 
d="M0 253h1000v34h-1000v-34z" />
    <glyph glyph-name="quoteleft" unicode="&#x2018;" horiz-adv-x="222" 
d="M85 484h52v100h-18v15q0 27 8 49.5t28 31.5v34q-37 -15 -53.5 -48.5t-16.5 -81.5v-100z" />
    <glyph glyph-name="quoteright" unicode="&#x2019;" horiz-adv-x="222" 
d="M85 614h18v-15q0 -27 -8 -49.5t-28 -31.5v-34q37 15 53.5 48.5t16.5 81.5v100h-52v-100z" />
    <glyph glyph-name="quotesinglbase" unicode="&#x201a;" horiz-adv-x="222" 
d="M85 0h18v-15q0 -27 -8 -49.5t-28 -31.5v-34q37 15 53.5 48.5t16.5 81.5v100h-52v-100z" />
    <glyph glyph-name="quotedblleft" unicode="&#x201c;" horiz-adv-x="352" 
d="M74 484h52v100h-18v15q0 27 8 49.5t28 31.5v34q-37 -15 -53.5 -48.5t-16.5 -81.5v-100zM226 484h52v100h-18v15q0 27 8 49.5t28 31.5v34q-37 -15 -53.5 -48.5t-16.5 -81.5v-100z" />
    <glyph glyph-name="quotedblright" unicode="&#x201d;" horiz-adv-x="352" 
d="M74 614h18v-15q0 -27 -8 -49.5t-28 -31.5v-34q37 15 53.5 48.5t16.5 81.5v100h-52v-100zM226 614h18v-15q0 -27 -8 -49.5t-28 -31.5v-34q37 15 53.5 48.5t16.5 81.5v100h-52v-100z" />
    <glyph glyph-name="quotedblbase" unicode="&#x201e;" horiz-adv-x="352" 
d="M74 0h18v-15q0 -27 -8 -49.5t-28 -31.5v-34q37 15 53.5 48.5t16.5 81.5v100h-52v-100zM226 0h18v-15q0 -27 -8 -49.5t-28 -31.5v-34q37 15 53.5 48.5t16.5 81.5v100h-52v-100z" />
    <glyph glyph-name="dagger" unicode="&#x2020;" 
d="M50 430h251v-586h46v586h251v40h-251v244h-46v-244h-251v-40z" />
    <glyph glyph-name="daggerdbl" unicode="&#x2021;" 
d="M50 46h251v-202h46v202h251v40h-251v386h251v40h-251v202h-46v-202h-251v-40h251v-386h-251v-40z" />
    <glyph glyph-name="bullet" unicode="&#x2022;" horiz-adv-x="500" 
d="M72 357q0 -36 14 -68.5t38.5 -57t57 -38.5t68.5 -14t68.5 14t57.5 38.5t38.5 57t13.5 68.5t-13.5 68.5t-38.5 57.5t-57.5 38.5t-68.5 13.5t-68.5 -13.5t-57 -38.5t-38.5 -57.5t-14 -68.5z" />
    <glyph glyph-name="ellipsis" unicode="&#x2026;" horiz-adv-x="1000" 
d="M141 0h52v100h-52v-100zM474 0h52v100h-52v-100zM807 0h52v100h-52v-100z" />
    <glyph glyph-name="perthousand" unicode="&#x2030;" horiz-adv-x="1167" 
d="M988 -16q85 0 129.5 53.5t44.5 139.5q0 89 -43.5 139.5t-130.5 50.5q-84 0 -129 -52t-45 -138q0 -89 44 -141t130 -52zM988 18q-68 0 -101 43.5t-33 115.5q0 71 33 113.5t101 42.5q69 0 101.5 -42t32.5 -114q0 -71 -32.5 -115t-101.5 -44zM589 -16q85 0 129.5 53.5
t44.5 139.5q0 89 -43.5 139.5t-130.5 50.5q-84 0 -129 -52t-45 -138q0 -89 44 -141t130 -52zM589 18q-68 0 -101 43.5t-33 115.5q0 71 33 113.5t101 42.5q69 0 101.5 -42t32.5 -114q0 -71 -32.5 -115t-101.5 -44zM179 337q85 0 129.5 53.5t44.5 139.5q0 89 -43.5 139.5
t-130.5 50.5q-84 0 -129 -52t-45 -138q0 -89 44 -141t130 -52zM179 371q-68 0 -101 43.5t-33 115.5q0 71 33 113.5t101 42.5q69 0 101.5 -42t32.5 -114q0 -71 -32.5 -115t-101.5 -44zM91 -22h40l529 748h-40z" />
    <glyph glyph-name="guilsinglleft" unicode="&#x2039;" horiz-adv-x="296" 
d="M73 247l136 -135v54l-102 104l102 104v54l-136 -135v-46z" />
    <glyph glyph-name="guilsinglright" unicode="&#x203a;" horiz-adv-x="296" 
d="M189 270l-102 -104v-54l136 135v46l-136 135v-54z" />
    <glyph glyph-name="trademark" unicode="&#x2122;" horiz-adv-x="990" 
d="M187 302h34v378h143v34h-320v-34h143v-378zM832 302h34v412h-58l-154 -346l-154 346h-58v-412h34v378h2l167 -378h18l167 378h2v-378z" />
    </font>
</defs>
</svg>
